<svg width="33" height="32" viewBox="0 0 33 32" fill="none" xmlns="http://www.w3.org/2000/svg">
<path d="M10.5 12.3962C12.3768 12.3962 13.3284 13.5676 14.1212 14.5047C14.9142 15.4679 15.4428 16.0406 16.5 16.0406C17.5572 16.0406 18.1124 15.4679 18.8788 14.5047C19.6453 13.5676 20.6234 12.3962 22.5 12.3962C24.3768 12.3962 25.3284 13.5676 26.1212 14.5047C26.9142 15.4679 27.4428 16.0406 28.5 16.0406L28.5 21C26.6232 21 25.6716 19.8286 24.8788 18.8915C24.0858 17.9284 23.5572 17.3557 22.5 17.3557C21.4428 17.3557 20.8876 17.9284 20.1212 18.8915C19.3547 19.8286 18.3766 21 16.5 21C14.6232 21 13.6716 19.8286 12.8788 18.8915C12.0858 17.9284 11.5572 17.3557 10.5 17.3557C9.4428 17.3557 8.88763 17.9284 8.12119 18.8915C7.35474 19.8286 6.3766 21 4.5 21L4.5 16.0406C5.5572 16.0406 6.11238 15.4679 6.87882 14.5047C7.64526 13.5676 8.6234 12.3962 10.5 12.3962Z" fill="#5D5FEF"/>
</svg>
