<svg width="24" height="25" viewBox="0 0 24 25" fill="none" xmlns="http://www.w3.org/2000/svg">
<path d="M21.0328 13.1835L17.4136 8.21767C17.2663 8.02833 17.056 7.9231 16.8245 7.9231H14.026V9.39596H16.4457L18.9706 12.8677L5.18842 12.8679L7.71336 9.39611H10.1331V7.92324L7.35566 7.9231C7.12419 7.9231 6.89275 8.02833 6.7665 8.21767L3.14736 13.1835C3.06326 13.3097 3 13.457 3 13.6254V21.2635C3 21.6633 3.3367 22 3.73653 22H20.4224C20.8222 22 21.1589 21.6633 21.1589 21.2635V13.6254C21.1801 13.4571 21.1168 13.3097 21.0327 13.1835L21.0328 13.1835ZM4.49417 20.5269V14.3618H19.7072V20.5269H4.49417Z" fill="#44A1E7"/>
<path d="M10.4282 5.46124L11.3541 4.53538V10.6795C11.3541 11.0793 11.6908 11.416 12.0906 11.416C12.4904 11.416 12.8271 11.0793 12.8271 10.6795L12.827 4.53538L13.7528 5.46124C13.9002 5.6086 14.0895 5.67172 14.2789 5.67172C14.4682 5.67172 14.6575 5.6086 14.8049 5.46124C15.0995 5.16667 15.0995 4.70375 14.8049 4.40917L12.6165 2.22093C12.3219 1.92636 11.859 1.92636 11.5644 2.22093L9.3762 4.40917C9.08163 4.70374 9.08163 5.16666 9.3762 5.46124C9.67078 5.75582 10.1337 5.75582 10.4283 5.46124H10.4282Z" fill="#44A1E7"/>
</svg>
