<svg width="25" height="24" viewBox="0 0 25 24" fill="none" xmlns="http://www.w3.org/2000/svg">
<path d="M22.2426 16.0554V20.4908C22.2426 20.5792 22.23 20.6612 22.2111 20.7369C22.1228 21.1723 21.7379 21.5004 21.2838 21.5004L3.15776 21.5002C2.67192 21.5002 2.26827 21.1279 2.21775 20.6547C2.20508 20.5978 2.20508 20.5475 2.20508 20.4843V16.0489C2.20508 15.5252 2.63407 15.1025 3.15144 15.1025C3.41004 15.1025 3.64982 15.2097 3.82021 15.3801C3.9906 15.5506 4.09781 15.7903 4.09781 16.0489V19.6009H20.3563V16.0489C20.3563 15.5252 20.7853 15.1025 21.3027 15.1025C21.5613 15.1025 21.8011 15.2098 21.9715 15.3802C22.1355 15.5571 22.2427 15.7968 22.2427 16.0554L22.2426 16.0554Z" fill="#808FB0"/>
<path d="M17.6812 11.6134L13.0314 16.2632C13.025 16.2759 13.0124 16.2822 13.0062 16.2884C12.8358 16.4588 12.6151 16.566 12.3943 16.5975C12.3753 16.5975 12.3565 16.6038 12.3374 16.6038C12.2996 16.6102 12.2618 16.6102 12.2239 16.6102L12.1167 16.6038C12.0977 16.6038 12.0789 16.5975 12.0598 16.5975C11.8328 16.566 11.6182 16.4588 11.448 16.2884C11.4416 16.282 11.4289 16.2694 11.4228 16.2632L6.77296 11.6134C6.55838 11.3988 6.45117 11.115 6.45117 10.8311C6.45117 10.5472 6.55838 10.2632 6.77296 10.0488C7.20196 9.61983 7.90225 9.61983 8.33758 10.0488L11.1325 12.8438L11.1323 2.60409C11.1323 1.99837 11.6307 1.5 12.2364 1.5C12.5392 1.5 12.8168 1.62622 13.0187 1.82179C13.2206 2.0237 13.3405 2.29497 13.3405 2.60407V12.8437L16.1354 10.0488C16.5644 9.61981 17.2647 9.61981 17.7001 10.0488C18.1102 10.4841 18.1102 11.1844 17.6812 11.6134L17.6812 11.6134Z" fill="#808FB0"/>
</svg>
