<svg width="33" height="32" viewBox="0 0 33 32" fill="none" xmlns="http://www.w3.org/2000/svg">
<path fill-rule="evenodd" clip-rule="evenodd" d="M14.2861 8.57143C14.2861 7.15122 15.4373 6 16.8576 6H25.429C26.8492 6 28.0004 7.15122 28.0004 8.57143V24C28.0004 25.4202 26.8492 26.5714 25.429 26.5714H16.8576C15.4373 26.5714 14.2861 25.4202 14.2861 24V8.57143Z" fill="#44A1E7"/>
<path fill-rule="evenodd" clip-rule="evenodd" d="M7.42871 10.2857C7.42871 8.8655 8.57993 7.71428 10.0001 7.71428H11.7144C12.1878 7.71428 12.5716 8.09808 12.5716 8.57142V24C12.5716 24.4733 12.1878 24.8571 11.7144 24.8571H10.0001C8.57993 24.8571 7.42871 23.7059 7.42871 22.2857V10.2857Z" fill="#44A1E7"/>
<path fill-rule="evenodd" clip-rule="evenodd" d="M4.85714 10.2857C5.33049 10.2857 5.71429 10.6695 5.71429 11.1429V21.4286C5.71429 21.9019 5.33049 22.2857 4.85714 22.2857C4.3838 22.2857 4 21.9019 4 21.4286V11.1429C4 10.6695 4.3838 10.2857 4.85714 10.2857Z" fill="#44A1E7"/>
</svg>
