<svg width="33" height="32" viewBox="0 0 33 32" fill="none" xmlns="http://www.w3.org/2000/svg">
<path d="M11.0004 16.6601C12.5625 16.6601 13.3477 17.445 14.1067 18.204C14.8554 18.9528 15.5629 19.6601 17.001 19.6601C18.4388 19.6601 19.1459 18.9528 19.8947 18.204C20.6537 17.445 21.4384 16.6601 23.0006 16.6601C24.5625 16.6601 25.3475 17.445 26.1063 18.204C26.8551 18.9528 27.5621 19.6601 29 19.6601L29 28.0001C27.4381 28.0001 26.6531 27.2151 25.8943 26.4561C25.1455 25.7074 24.4382 25.0001 23.0006 25.0001C21.5627 25.0001 20.8556 25.7074 20.1067 26.4561C19.3479 27.2151 18.5629 28.0001 17.001 28.0001C15.4388 28.0001 14.6537 27.2151 13.8947 26.4561C13.1458 25.7074 12.4384 25.0001 11.0004 25.0001C9.56252 25.0001 8.85522 25.7074 8.10629 26.4561C7.34729 27.2151 6.56214 28.0001 5 28.0001L5 19.6601C6.43807 19.6601 7.14538 18.9528 7.89431 18.204C8.65331 17.4448 9.43823 16.6601 11.0004 16.6601Z" fill="#EF5DA8"/>
<path d="M11.0004 4.00006C12.5625 4.00006 13.3477 4.78498 14.1067 5.54399C14.8556 6.29275 15.5629 7.00006 17.001 7.00006C18.4388 7.00006 19.1459 6.29275 19.8947 5.54399C20.6535 4.78498 21.4384 4.00006 23.0006 4.00006C24.5625 4.00006 25.3475 4.78499 26.1063 5.54399C26.8551 6.29275 27.5621 7.00006 29 7.00006L29 15.3401C27.4381 15.3401 26.6531 14.5551 25.8943 13.7961C25.1455 13.0474 24.4384 12.3401 23.0006 12.3401C21.5627 12.3401 20.8556 13.0474 20.1067 13.7961C19.3477 14.5551 18.5629 15.3401 17.001 15.3401C15.4388 15.3401 14.6537 14.5551 13.8947 13.7961C13.1459 13.0474 12.4384 12.3401 11.0004 12.3401C9.56252 12.3401 8.85522 13.0474 8.10629 13.7961C7.34729 14.5553 6.56214 15.3401 5 15.3401L5 7.00006C6.43807 7.00006 7.14538 6.29275 7.89431 5.54398C8.65331 4.78498 9.43823 4.00006 11.0004 4.00006Z" fill="#EF5DA8"/>
</svg>
