<svg width="24" height="24" viewBox="0 0 24 24" fill="none" xmlns="http://www.w3.org/2000/svg">
<path d="M22.0376 16.0551V20.4905C22.0376 20.5789 22.0249 20.6609 22.0061 20.7366C21.9177 21.1719 21.5329 21.5 21.0787 21.5L2.95268 21.4999C2.46684 21.4999 2.06319 21.1276 2.01267 20.6544C2 20.5975 2 20.5472 2 20.484V16.0486C2 15.5249 2.429 15.1022 2.94636 15.1022C3.20496 15.1022 3.44474 15.2094 3.61513 15.3798C3.78552 15.5502 3.89274 15.79 3.89274 16.0486V19.6006H20.1513V16.0486C20.1513 15.5249 20.5803 15.1022 21.0976 15.1022C21.3562 15.1022 21.596 15.2094 21.7664 15.3798C21.9305 15.5568 22.0377 15.7965 22.0377 16.0551L22.0376 16.0551Z" fill="#44A1E7"/>
<path d="M17.4761 11.6134L12.8263 16.2632C12.82 16.2759 12.8073 16.2822 12.8011 16.2884C12.6307 16.4588 12.41 16.566 12.1892 16.5975C12.1702 16.5975 12.1514 16.6038 12.1324 16.6038C12.0945 16.6102 12.0567 16.6102 12.0188 16.6102L11.9116 16.6038C11.8926 16.6038 11.8738 16.5975 11.8548 16.5975C11.6277 16.566 11.4131 16.4588 11.2429 16.2884C11.2365 16.282 11.2239 16.2694 11.2177 16.2632L6.56789 11.6134C6.3533 11.3988 6.24609 11.115 6.24609 10.8311C6.24609 10.5472 6.3533 10.2632 6.56789 10.0488C6.99688 9.61983 7.69717 9.61983 8.1325 10.0488L10.9274 12.8438L10.9273 2.60409C10.9273 1.99837 11.4256 1.5 12.0314 1.5C12.3341 1.5 12.6117 1.62622 12.8136 1.82179C13.0156 2.0237 13.1354 2.29497 13.1354 2.60407V12.8437L15.9304 10.0488C16.3594 9.61981 17.0597 9.61981 17.495 10.0488C17.9051 10.4841 17.9051 11.1844 17.4761 11.6134L17.4761 11.6134Z" fill="#44A1E7"/>
</svg>
