<svg width="33" height="32" viewBox="0 0 33 32" fill="none" xmlns="http://www.w3.org/2000/svg">
<path d="M24.457 8.3713L20.4464 4.36066C20.2176 4.13213 19.9073 4.00394 19.5839 4.00415H9.42329C9.09995 4.00415 8.78977 4.13255 8.56125 4.3613C8.33251 4.58983 8.2041 4.89999 8.2041 5.22313V26.7852C8.2041 27.1083 8.33251 27.4185 8.56125 27.647C8.78978 27.8757 9.09994 28.0042 9.42329 28.0042H23.5948C23.9182 28.0042 24.2281 27.8757 24.4569 27.647C24.6854 27.4185 24.8138 27.1083 24.8138 26.7852V9.23404C24.8142 8.91048 24.6858 8.60029 24.4573 8.37134L24.457 8.3713ZM11.7848 10.7395H18.6056V11.6934H11.7848V10.7395ZM21.2325 21.2691H11.7848V20.3153H21.2325V21.2691ZM21.2325 18.0752H11.7848V17.1243H21.2325V18.0752ZM21.2325 14.8996H11.7848V13.9336H21.2325V14.8996Z" fill="#A34C00"/>
</svg>
