<svg width="33" height="32" viewBox="0 0 33 32" fill="none" xmlns="http://www.w3.org/2000/svg">
<path d="M29.5263 25.4235V27.747H21.887V25.4235C21.887 25.2643 21.887 25.1371 21.9188 25.0096C21.9188 24.9459 21.9188 24.8824 21.9505 24.8504C21.9505 24.7867 21.9823 24.7232 21.9823 24.6595C22.2052 23.5773 22.8735 22.6861 23.7967 22.145C23.2556 21.6357 22.9055 20.9036 22.9055 20.0762C22.9055 18.5801 24.0831 17.3705 25.5474 17.275H25.7066C25.8338 17.275 25.9295 17.275 26.0567 17.3068H26.1522C26.2477 17.3068 26.3432 17.3385 26.4386 17.3705H26.5023C26.7253 17.4342 26.948 17.5297 27.1709 17.6569C27.9984 18.1343 28.5715 19.0575 28.5715 20.076C28.5715 20.9035 28.2213 21.6038 27.6802 22.1448C28.7622 22.7816 29.5262 23.991 29.5262 25.4236L29.5263 25.4235ZM11.6377 24.8187C11.6377 24.7549 11.6059 24.6914 11.6059 24.6277C11.383 23.5453 10.7145 22.6541 9.79149 22.113C10.3326 21.6037 10.6827 20.8716 10.6827 20.0442C10.6827 18.5481 9.50508 17.3385 8.04083 17.243H7.88163C7.75441 17.243 7.65871 17.243 7.53149 17.2748H7.43601C7.34054 17.2748 7.24507 17.3065 7.14959 17.3385H7.08587C6.86295 17.4022 6.64026 17.4977 6.41732 17.6249C5.58979 18.1023 5.01673 19.0255 5.01673 20.044C5.01673 20.8715 5.36687 21.5718 5.90798 22.1128C4.76209 22.7814 3.99805 23.9908 3.99805 25.4231L3.99827 27.7471H11.6375V25.4235C11.6375 25.2643 11.6375 25.1371 11.6058 25.0097C11.6695 24.9142 11.6695 24.8822 11.6378 24.8187L11.6377 24.8187ZM14.4069 8.01227C14.4706 8.10774 14.5341 8.20322 14.5978 8.26694L14.6615 8.33067C14.7253 8.42614 14.8207 8.52161 14.9162 8.58534C13.7703 9.25389 13.0063 10.4633 13.0063 11.8956V14.2191H20.6455V11.8956C20.6455 10.5905 20.009 9.47653 19.0223 8.77626C18.9268 8.71254 18.8313 8.64904 18.7358 8.58531L19.0542 8.26692C19.1179 8.17144 19.1815 8.10772 19.2452 8.01225V7.9805C19.3724 7.75758 19.4681 7.53489 19.5636 7.28023C19.6273 7.05731 19.659 6.80287 19.659 6.54819C19.659 4.98845 18.3859 3.74707 16.8579 3.74707C15.2982 3.74707 14.0568 5.02017 14.0568 6.54819C13.9931 7.05731 14.1205 7.56665 14.4069 8.01227L14.4069 8.01227ZM8.10447 16.2881C8.42286 13.3598 10.1733 10.8771 12.6561 9.54012C12.879 9.12626 13.1972 8.74437 13.5473 8.39423C13.3881 8.13956 13.2609 7.85315 13.1972 7.53476C9.47304 8.93535 6.76747 12.4048 6.481 16.5427C6.92661 16.3518 7.40396 16.2563 7.88159 16.2563C7.94531 16.2881 8.00903 16.2881 8.10451 16.2881L8.10447 16.2881ZM12.6244 24.946C12.6244 25.1052 12.6561 25.2644 12.6561 25.4233V26.7284C13.9292 27.2695 15.3298 27.5879 16.7941 27.5879C18.2584 27.5879 19.6587 27.2695 20.9321 26.7284V25.4233C20.9321 25.2641 20.9321 25.105 20.9639 24.946C19.7225 25.6145 18.3219 25.9964 16.7941 25.9964C15.2663 25.9964 13.8658 25.6145 12.6244 24.946H12.6244ZM25.4838 16.2881H25.7067C26.2161 16.2881 26.6934 16.3836 27.1073 16.5746C26.8526 12.4366 24.1152 8.96713 20.3911 7.5666C20.2956 7.85302 20.2002 8.13943 20.041 8.42607C20.3911 8.74446 20.7095 9.15811 20.9322 9.57196C23.415 10.8771 25.1657 13.3915 25.4838 16.2882L25.4838 16.2881Z" fill="#828282"/>
</svg>
