<svg width="384" height="324" viewBox="0 0 384 324" fill="none" xmlns="http://www.w3.org/2000/svg">
<g clip-path="url(#clip0_2073_1270)">
<path d="M298.206 179.661C331.119 179.661 357.8 152.942 357.8 119.983C357.8 87.0234 331.119 60.3047 298.206 60.3047C265.293 60.3047 238.611 87.0234 238.611 119.983C238.611 152.942 265.293 179.661 298.206 179.661Z" fill="white"/>
<path d="M102.139 179.661C135.052 179.661 161.734 152.942 161.734 119.983C161.734 87.0234 135.052 60.3047 102.139 60.3047C69.2262 60.3047 42.5449 87.0234 42.5449 119.983C42.5449 152.942 69.2262 179.661 102.139 179.661Z" fill="white"/>
<path d="M137.176 71.8174C143.276 81.2155 146.796 92.3366 146.796 104.398C146.796 137.369 120.127 164.076 87.2012 164.076C74.0623 164.076 61.9401 159.768 52.0859 152.563C62.7222 168.931 81.101 179.661 102.061 179.661C134.986 179.661 161.655 152.954 161.655 119.983C161.655 100.247 152.035 82.7035 137.176 71.8174Z" fill="#EFEFEF"/>
<path d="M333.242 71.8174C339.343 81.2155 342.862 92.3366 342.862 104.398C342.862 137.369 316.193 164.076 283.268 164.076C270.129 164.076 258.007 159.768 248.152 152.563C258.789 168.931 277.167 179.661 298.127 179.661C331.053 179.661 357.721 152.954 357.721 119.983C357.721 100.247 348.024 82.7035 333.242 71.8174Z" fill="#EFEFEF"/>
<path d="M102.138 182.48C67.805 182.48 39.8066 154.442 39.8066 120.061C39.8066 85.6793 67.805 57.6416 102.138 57.6416C136.471 57.6416 164.47 85.6793 164.47 120.061C164.47 154.442 136.471 182.48 102.138 182.48ZM102.138 63.0455C70.7769 63.0455 45.2812 88.5771 45.2812 119.982C45.2812 151.388 70.7769 176.919 102.138 176.919C133.5 176.919 158.995 151.388 158.995 119.982C158.995 88.6554 133.5 63.0455 102.138 63.0455Z" fill="#231F20"/>
<path d="M80.9446 129.616C96.8828 129.616 109.803 116.677 109.803 100.717C109.803 84.756 96.8828 71.8174 80.9446 71.8174C65.0064 71.8174 52.0859 84.756 52.0859 100.717C52.0859 116.677 65.0064 129.616 80.9446 129.616Z" fill="#231F20"/>
<path d="M73.9051 107.295C80.4272 107.295 85.7144 102.001 85.7144 95.4695C85.7144 88.9382 80.4272 83.6436 73.9051 83.6436C67.3829 83.6436 62.0957 88.9382 62.0957 95.4695C62.0957 102.001 67.3829 107.295 73.9051 107.295Z" fill="white"/>
<path d="M298.205 182.48C263.871 182.48 235.873 154.442 235.873 120.061C235.873 85.6793 263.871 57.6416 298.205 57.6416C332.538 57.6416 360.536 85.6793 360.536 120.061C360.536 154.442 332.538 182.48 298.205 182.48ZM298.205 63.0455C266.843 63.0455 241.348 88.5771 241.348 119.982C241.348 151.388 266.843 176.919 298.205 176.919C329.566 176.919 355.062 151.388 355.062 119.982C355.062 88.6554 329.566 63.0455 298.205 63.0455Z" fill="#231F20"/>
<path d="M316.036 169.323C331.975 169.323 344.895 156.384 344.895 140.424C344.895 124.463 331.975 111.524 316.036 111.524C300.098 111.524 287.178 124.463 287.178 140.424C287.178 156.384 300.098 169.323 316.036 169.323Z" fill="#231F20"/>
<path d="M308.999 147.003C315.521 147.003 320.808 141.708 320.808 135.177C320.808 128.645 315.521 123.351 308.999 123.351C302.477 123.351 297.189 128.645 297.189 135.177C297.189 141.708 302.477 147.003 308.999 147.003Z" fill="white"/>
<path d="M25.8855 38.8458C35.9743 50.4368 45.0464 29.4477 76.2513 22.869C102.294 17.3868 118.562 30.4658 123.098 20.5978C127.634 10.7298 106.831 -3.05409 68.5087 3.05468C39.9629 7.51878 14.1544 25.3752 25.8855 38.8458Z" fill="#231F20"/>
<path d="M373.676 40.7251C362.961 51.7679 355.062 30.3089 324.248 22.0072C298.518 15.1153 281.547 27.2545 277.558 17.1515C273.57 7.04856 295.077 -5.56058 333.008 2.58445C361.319 8.69323 386.111 27.881 373.676 40.7251Z" fill="#231F20"/>
<path d="M191.373 313.192C172.291 313.192 157.822 296.432 143.667 280.064C130.841 265.183 117.545 249.755 101.826 249.05C66.3974 247.405 27.9974 297.215 27.6064 297.685C25.6512 300.27 21.9754 300.74 19.3945 298.782C16.8137 296.824 16.3444 293.143 18.2996 290.558C20.0202 288.365 59.3587 237.302 100.105 237.302C100.887 237.302 101.591 237.302 102.373 237.381C123.098 238.399 138.036 255.707 152.504 272.467C167.833 290.245 181.128 305.595 198.256 300.426C214.523 295.492 228.991 279.907 243.069 264.87C260.665 245.996 278.81 226.495 301.177 228.922C322.606 231.272 340.203 244.351 352.169 266.75C360.928 283.197 363.509 298.86 363.587 299.487C364.134 302.698 361.945 305.674 358.738 306.222C355.531 306.77 352.56 304.577 352.012 301.366C351.934 300.818 342.314 245.134 299.926 240.592C283.424 238.79 268.017 255.394 251.672 272.859C236.577 288.992 221.014 305.752 201.697 311.626C198.099 312.644 194.658 313.192 191.373 313.192Z" fill="#231F20"/>
<path d="M2.42383 279.907C-2.03401 291.029 -0.157021 304.343 6.64705 314.132C8.60225 316.952 10.8703 319.458 13.6075 321.572C14.4678 322.277 15.6409 322.434 16.423 321.572C17.1269 320.868 17.2833 319.379 16.423 318.753C7.74196 311.939 3.28412 300.818 4.1444 289.854C4.37903 286.799 5.16111 283.823 6.25601 280.926C6.64705 279.907 5.78677 278.733 4.84827 278.419C3.75337 278.184 2.81487 278.889 2.42383 279.907Z" fill="#231F20"/>
<path d="M356.706 323.843C363.822 325.018 370.314 320.476 374.772 315.307C378.995 310.373 382.045 304.264 383.296 297.92C384 294.239 384.235 290.48 383.844 286.799C383.765 285.703 382.983 284.763 381.81 284.763C380.794 284.763 379.699 285.703 379.777 286.799C380.95 297.998 376.336 310.451 367.029 317.108C364.37 318.987 361.085 320.554 357.722 320.006C356.627 319.849 355.532 320.319 355.22 321.415C355.063 322.355 355.611 323.687 356.706 323.843Z" fill="#231F20"/>
</g>
<defs>
<clipPath id="clip0_2073_1270">
<rect width="384" height="324" fill="white"/>
</clipPath>
</defs>
</svg>
