<svg width="975" height="415" viewBox="0 0 975 415" fill="none" xmlns="http://www.w3.org/2000/svg">
<g clip-path="url(#clip0_1686_1014)">
<path d="M162.5 397V342.5H25V268.5L179 44.5H265V263.5H308.5V342.5H265V397H162.5ZM162.5 263.5V172H176L98.5 288V263.5H162.5ZM487.805 403C443.471 403 409.305 387 385.305 355C361.638 322.667 349.805 277.333 349.805 219C349.805 160.333 361.638 115.667 385.305 85C409.305 54 443.471 38.5 487.805 38.5C532.471 38.5 566.638 54 590.305 85C613.971 115.667 625.805 160.167 625.805 218.5C625.805 277.167 613.971 322.667 590.305 355C566.638 387 532.471 403 487.805 403ZM487.805 318C500.138 318 509.305 310.333 515.305 295C521.305 279.333 524.305 254 524.305 219C524.305 184 521.305 159.333 515.305 145C509.305 130.667 500.138 123.5 487.805 123.5C475.471 123.5 466.305 130.667 460.305 145C454.305 159.333 451.305 184 451.305 219C451.305 254 454.305 279.333 460.305 295C466.305 310.333 475.471 318 487.805 318ZM812.109 397V342.5H674.609V268.5L828.609 44.5H914.609V263.5H958.109V342.5H914.609V397H812.109ZM812.109 263.5V172H825.609L748.109 288V263.5H812.109Z" fill="#FFD3D3"/>
</g>
<g clip-path="url(#clip1_1686_1014)">
<path d="M594.206 218.661C627.119 218.661 653.8 191.942 653.8 158.983C653.8 126.023 627.119 99.3047 594.206 99.3047C561.293 99.3047 534.611 126.023 534.611 158.983C534.611 191.942 561.293 218.661 594.206 218.661Z" fill="white"/>
<path d="M398.139 218.661C431.052 218.661 457.734 191.942 457.734 158.983C457.734 126.023 431.052 99.3047 398.139 99.3047C365.226 99.3047 338.545 126.023 338.545 158.983C338.545 191.942 365.226 218.661 398.139 218.661Z" fill="white"/>
<path d="M433.176 110.817C439.276 120.215 442.796 131.337 442.796 143.398C442.796 176.369 416.127 203.076 383.201 203.076C370.062 203.076 357.94 198.768 348.086 191.563C358.722 207.931 377.101 218.661 398.061 218.661C430.986 218.661 457.655 191.954 457.655 158.983C457.655 139.247 448.035 121.704 433.176 110.817Z" fill="#EFEFEF"/>
<path d="M629.242 110.817C635.343 120.215 638.862 131.337 638.862 143.398C638.862 176.369 612.193 203.076 579.268 203.076C566.129 203.076 554.007 198.768 544.152 191.563C554.789 207.931 573.167 218.661 594.127 218.661C627.053 218.661 653.721 191.954 653.721 158.983C653.721 139.247 644.024 121.704 629.242 110.817Z" fill="#EFEFEF"/>
<path d="M398.138 221.48C363.805 221.48 335.807 193.442 335.807 159.061C335.807 124.679 363.805 96.6416 398.138 96.6416C432.471 96.6416 460.47 124.679 460.47 159.061C460.47 193.442 432.471 221.48 398.138 221.48ZM398.138 102.046C366.777 102.046 341.281 127.577 341.281 158.982C341.281 190.388 366.777 215.919 398.138 215.919C429.5 215.919 454.995 190.388 454.995 158.982C454.995 127.655 429.5 102.046 398.138 102.046Z" fill="#231F20"/>
<path d="M376.945 168.616C392.883 168.616 405.803 155.677 405.803 139.717C405.803 123.756 392.883 110.817 376.945 110.817C361.006 110.817 348.086 123.756 348.086 139.717C348.086 155.677 361.006 168.616 376.945 168.616Z" fill="#231F20"/>
<path d="M369.905 146.295C376.427 146.295 381.714 141.001 381.714 134.47C381.714 127.938 376.427 122.644 369.905 122.644C363.383 122.644 358.096 127.938 358.096 134.47C358.096 141.001 363.383 146.295 369.905 146.295Z" fill="white"/>
<path d="M594.205 221.48C559.871 221.48 531.873 193.442 531.873 159.061C531.873 124.679 559.871 96.6416 594.205 96.6416C628.538 96.6416 656.536 124.679 656.536 159.061C656.536 193.442 628.538 221.48 594.205 221.48ZM594.205 102.046C562.843 102.046 537.348 127.577 537.348 158.982C537.348 190.388 562.843 215.919 594.205 215.919C625.566 215.919 651.062 190.388 651.062 158.982C651.062 127.655 625.566 102.046 594.205 102.046Z" fill="#231F20"/>
<path d="M612.036 208.323C627.975 208.323 640.895 195.384 640.895 179.424C640.895 163.463 627.975 150.524 612.036 150.524C596.098 150.524 583.178 163.463 583.178 179.424C583.178 195.384 596.098 208.323 612.036 208.323Z" fill="#231F20"/>
<path d="M604.999 186.003C611.521 186.003 616.808 180.708 616.808 174.177C616.808 167.645 611.521 162.351 604.999 162.351C598.477 162.351 593.189 167.645 593.189 174.177C593.189 180.708 598.477 186.003 604.999 186.003Z" fill="white"/>
<path d="M321.886 77.8458C331.974 89.4368 341.046 68.4477 372.251 61.869C398.294 56.3868 414.562 69.4658 419.098 59.5978C423.634 49.7298 402.831 35.9459 364.509 42.0547C335.963 46.5188 310.154 64.3752 321.886 77.8458Z" fill="#231F20"/>
<path d="M669.676 79.7251C658.961 90.7679 651.062 69.3089 620.248 61.0072C594.518 54.1153 577.547 66.2545 573.558 56.1515C569.57 46.0486 591.077 33.4394 629.008 41.5845C657.319 47.6932 682.111 66.881 669.676 79.7251Z" fill="#231F20"/>
<path d="M487.373 352.192C468.291 352.192 453.822 335.432 439.667 319.064C426.841 304.183 413.545 288.755 397.826 288.05C362.397 286.405 323.997 336.215 323.606 336.685C321.651 339.27 317.975 339.74 315.395 337.782C312.814 335.824 312.344 332.143 314.3 329.558C316.02 327.365 355.359 276.302 396.105 276.302C396.887 276.302 397.591 276.302 398.373 276.381C419.098 277.399 434.036 294.707 448.504 311.467C463.833 329.245 477.128 344.595 494.256 339.426C510.523 334.492 524.991 318.907 539.069 303.87C556.665 284.996 574.81 265.495 597.177 267.922C618.606 270.272 636.203 283.351 648.169 305.75C656.928 322.197 659.509 337.86 659.587 338.487C660.134 341.698 657.945 344.674 654.738 345.222C651.531 345.77 648.56 343.577 648.012 340.366C647.934 339.818 638.314 284.134 595.926 279.592C579.424 277.79 564.017 294.394 547.672 311.859C532.577 327.992 517.014 344.752 497.697 350.626C494.099 351.644 490.658 352.192 487.373 352.192Z" fill="#231F20"/>
<path d="M298.424 318.907C293.966 330.029 295.843 343.343 302.647 353.132C304.602 355.952 306.87 358.458 309.608 360.572C310.468 361.277 311.641 361.434 312.423 360.572C313.127 359.868 313.283 358.379 312.423 357.753C303.742 350.939 299.284 339.818 300.144 328.854C300.379 325.799 301.161 322.823 302.256 319.926C302.647 318.907 301.787 317.733 300.848 317.419C299.753 317.184 298.815 317.889 298.424 318.907Z" fill="#231F20"/>
<path d="M652.706 362.843C659.822 364.018 666.314 359.476 670.772 354.307C674.995 349.373 678.045 343.264 679.296 336.92C680 333.239 680.235 329.48 679.844 325.799C679.765 324.703 678.983 323.763 677.81 323.763C676.794 323.763 675.699 324.703 675.777 325.799C676.95 336.998 672.336 349.451 663.029 356.108C660.37 357.987 657.085 359.554 653.722 359.006C652.627 358.849 651.532 359.319 651.22 360.415C651.063 361.355 651.611 362.687 652.706 362.843Z" fill="#231F20"/>
</g>
<defs>
<clipPath id="clip0_1686_1014">
<rect width="975" height="415" fill="white"/>
</clipPath>
<clipPath id="clip1_1686_1014">
<rect width="384" height="324" fill="white" transform="translate(296 39)"/>
</clipPath>
</defs>
</svg>
