<svg width="975" height="415" viewBox="0 0 975 415" fill="none" xmlns="http://www.w3.org/2000/svg">
<g clip-path="url(#clip0_1702_1037)">
<path d="M157.5 403C141.5 403 125.5 401.333 109.5 398C93.8333 395 79.1667 390.833 65.5 385.5C52.1667 379.833 41 373.5 32 366.5L64 287C78 296 92.8333 303 108.5 308C124.167 313 139.667 315.5 155 315.5C169.667 315.5 180.833 312.833 188.5 307.5C196.5 301.833 200.5 293.833 200.5 283.5C200.5 273.167 196.667 265.333 189 260C181.667 254.333 171.667 251.5 159 251.5C149.667 251.5 140.667 253 132 256C123.667 258.667 115.5 262.833 107.5 268.5H42V44.5H279.5V131.5H142V190.5H118.5C126.167 182.833 136 177 148 173C160.333 169 173.667 167 188 167C210.667 167 230.5 171.833 247.5 181.5C264.833 190.833 278.333 204 288 221C297.667 238 302.5 257.833 302.5 280.5C302.5 305.167 296.667 326.833 285 345.5C273.333 363.833 256.667 378 235 388C213.333 398 187.5 403 157.5 403ZM487.805 403C443.471 403 409.305 387 385.305 355C361.638 322.667 349.805 277.333 349.805 219C349.805 160.333 361.638 115.667 385.305 85C409.305 54 443.471 38.5 487.805 38.5C532.471 38.5 566.638 54 590.305 85C613.971 115.667 625.805 160.167 625.805 218.5C625.805 277.167 613.971 322.667 590.305 355C566.638 387 532.471 403 487.805 403ZM487.805 318C500.138 318 509.305 310.333 515.305 295C521.305 279.333 524.305 254 524.305 219C524.305 184 521.305 159.333 515.305 145C509.305 130.667 500.138 123.5 487.805 123.5C475.471 123.5 466.305 130.667 460.305 145C454.305 159.333 451.305 184 451.305 219C451.305 254 454.305 279.333 460.305 295C466.305 310.333 475.471 318 487.805 318ZM800.109 403C774.776 403 750.276 399.667 726.609 393C702.943 386.333 684.276 377.5 670.609 366.5L702.609 287C716.609 296.333 731.609 303.5 747.609 308.5C763.609 313.167 779.776 315.5 796.109 315.5C811.776 315.5 823.276 313.167 830.609 308.5C838.276 303.833 842.109 296.833 842.109 287.5C842.109 278.5 838.943 272 832.609 268C826.276 264 816.776 262 804.109 262H739.609V178H793.609C805.276 178 814.443 175.833 821.109 171.5C827.776 167.167 831.109 160.833 831.109 152.5C831.109 143.833 827.776 137.333 821.109 133C814.443 128.333 804.609 126 791.609 126C761.609 126 733.943 135.333 708.609 154L676.109 76C691.776 64.3333 710.776 55.1666 733.109 48.5C755.443 41.8333 778.609 38.5 802.609 38.5C843.609 38.5 875.609 47.3333 898.609 65C921.609 82.3333 933.109 106.667 933.109 138C933.109 157.667 927.443 174.667 916.109 189C905.109 203.333 889.776 212.833 870.109 217.5V210C893.109 213.667 911.109 223.333 924.109 239C937.443 254.667 944.109 274.333 944.109 298C944.109 330.667 931.276 356.333 905.609 375C879.943 393.667 844.776 403 800.109 403Z" fill="#B7DFFF"/>
<g clip-path="url(#clip1_1702_1037)">
<path d="M593.273 218.14C626.335 218.14 653.137 191.334 653.137 158.267C653.137 125.2 626.335 98.3945 593.273 98.3945C560.21 98.3945 533.408 125.2 533.408 158.267C533.408 191.334 560.21 218.14 593.273 218.14Z" fill="white"/>
<path d="M396.318 218.14C429.38 218.14 456.182 191.334 456.182 158.267C456.182 125.2 429.38 98.3945 396.318 98.3945C363.255 98.3945 336.453 125.2 336.453 158.267C336.453 191.334 363.255 218.14 396.318 218.14Z" fill="white"/>
<path d="M431.591 109.944C437.719 119.373 441.254 130.53 441.254 142.631C441.254 175.71 414.465 202.503 381.39 202.503C368.191 202.503 356.014 198.182 346.115 190.953C356.8 207.375 375.262 218.139 396.317 218.139C429.391 218.139 456.181 191.346 456.181 158.267C456.103 138.466 446.44 120.866 431.591 109.944Z" fill="#EFEFEF"/>
<path d="M628.47 109.944C634.598 119.373 638.133 130.53 638.133 142.631C638.133 175.71 611.343 202.503 578.269 202.503C565.07 202.503 552.893 198.182 542.994 190.953C553.679 207.375 572.141 218.139 593.196 218.139C626.27 218.139 653.06 191.346 653.06 158.267C653.06 138.466 643.397 120.866 628.47 109.944Z" fill="#EFEFEF"/>
<path d="M396.317 220.89C361.828 220.89 333.703 192.761 333.703 158.267C333.703 123.774 361.828 95.6445 396.317 95.6445C430.806 95.6445 458.932 123.774 458.932 158.267C458.932 192.761 430.885 220.89 396.317 220.89ZM396.317 101.145C364.814 101.145 339.202 126.759 339.202 158.267C339.202 189.775 364.814 215.39 396.317 215.39C427.821 215.39 453.432 189.775 453.432 158.267C453.432 126.759 427.821 101.145 396.317 101.145Z" fill="#231F20"/>
<path d="M394.745 174.139C405.723 174.139 414.622 165.239 414.622 154.26C414.622 143.281 405.723 134.381 394.745 134.381C383.768 134.381 374.869 143.281 374.869 154.26C374.869 165.239 383.768 174.139 394.745 174.139Z" fill="#231F20"/>
<path d="M389.876 158.817C394.388 158.817 398.046 155.158 398.046 150.645C398.046 146.132 394.388 142.474 389.876 142.474C385.363 142.474 381.705 146.132 381.705 150.645C381.705 155.158 385.363 158.817 389.876 158.817Z" fill="white"/>
<path d="M593.273 174.139C604.25 174.139 613.149 165.239 613.149 154.26C613.149 143.281 604.25 134.381 593.273 134.381C582.295 134.381 573.396 143.281 573.396 154.26C573.396 165.239 582.295 174.139 593.273 174.139Z" fill="#231F20"/>
<path d="M588.403 158.817C592.915 158.817 596.573 155.158 596.573 150.645C596.573 146.132 592.915 142.474 588.403 142.474C583.89 142.474 580.232 146.132 580.232 150.645C580.232 155.158 583.89 158.817 588.403 158.817Z" fill="white"/>
<path d="M593.272 220.89C558.784 220.89 530.658 192.761 530.658 158.267C530.658 123.774 558.784 95.6445 593.272 95.6445C627.761 95.6445 655.887 123.774 655.887 158.267C655.887 192.761 627.84 220.89 593.272 220.89ZM593.272 101.145C561.769 101.145 536.158 126.759 536.158 158.267C536.158 189.775 561.769 215.39 593.272 215.39C624.776 215.39 650.387 189.775 650.387 158.267C650.387 126.759 624.776 101.145 593.272 101.145Z" fill="#231F20"/>
<path d="M305.656 85.4298C317.755 93.2871 317.44 70.8938 339.831 55.4149C358.45 42.529 375.97 49.9148 376.048 39.3075C376.127 28.7001 354.836 21.9428 326.711 39.0718C305.735 51.8006 291.593 76.2368 305.656 85.4298Z" fill="#231F20"/>
<path d="M670.028 79.4585C657.694 86.923 658.715 64.6082 636.875 48.3436C618.648 34.8291 600.972 41.6649 601.207 31.0576C601.443 20.4502 622.969 14.4001 650.545 32.3933C671.049 45.9079 684.327 70.7369 670.028 79.4585Z" fill="#231F20"/>
<path d="M502.926 358.55C457.516 358.629 405.822 356.9 406.686 330.5C407.551 304.099 452.567 242.498 502.926 245.405C553.284 248.391 607.964 301.899 598.065 331.6C588.166 361.379 527.594 358.55 502.926 358.55Z" fill="#231F20"/>
<path d="M460.817 389.585C478.807 383.771 498.291 382.75 516.832 386.521C522.174 387.621 527.359 389.114 532.466 390.921C533.408 391.236 534.508 390.528 534.744 389.664C535.058 388.643 534.43 387.778 533.487 387.385C515.103 380.707 495.148 379.057 475.901 382.2C470.48 383.064 465.138 384.4 459.952 386.05C457.596 386.757 458.538 390.293 460.817 389.585Z" fill="#231F20"/>
</g>
</g>
<defs>
<clipPath id="clip0_1702_1037">
<rect width="975" height="415" fill="white"/>
</clipPath>
<clipPath id="clip1_1702_1037">
<rect width="376" height="370" fill="white" transform="translate(300 21)"/>
</clipPath>
</defs>
</svg>
