<svg width="28" height="24" viewBox="0 0 28 24" fill="none" xmlns="http://www.w3.org/2000/svg">
<path d="M2.11133 13.5139L6.98376 15.4386L12.0322 13.5139L6.98376 11.5817L2.11133 13.5139Z" fill="#5D5FEF"/>
<path d="M0.675781 21.8301L6.25843 23.9839V16.7132L0.828525 14.5673L0.675781 21.8301Z" fill="#5D5FEF"/>
<path d="M13.353 21.8459V14.5752L7.7168 16.7211V23.9843L13.353 21.8459Z" fill="#5D5FEF"/>
<path d="M16.1113 13.5287L21.129 15.4609L26.1774 13.5287L21.129 11.604L16.1113 13.5287Z" fill="#5D5FEF"/>
<path d="M14.8047 21.8458L20.3952 23.9996V16.7364L14.8047 14.5905V21.8458Z" fill="#5D5FEF"/>
<path d="M27.4897 21.8537V14.5909L21.8535 16.7368V24L27.4897 21.8537Z" fill="#5D5FEF"/>
<path d="M8.74609 1.92466L13.7638 3.85682L18.8122 1.92466L13.7638 0L8.74609 1.92466Z" fill="#5D5FEF"/>
<path d="M7.44141 10.2418L13.0319 12.3956V5.13237L7.44141 2.98645V10.2418Z" fill="#5D5FEF"/>
<path d="M20.1264 10.2496V2.98681L14.4902 5.13273V12.3959L20.1264 10.2496Z" fill="#5D5FEF"/>
</svg>
