<svg width="21" height="20" viewBox="0 0 21 20" fill="none" xmlns="http://www.w3.org/2000/svg">
<path d="M5.38462 1.92308V0.769231C5.38462 0.565248 5.46567 0.369503 5.6099 0.225275C5.75412 0.0810462 5.94987 0 6.15385 0H7.3077C7.5826 0 7.83654 0.146633 7.9739 0.384615C8.11126 0.622598 8.11126 0.915868 7.9739 1.15385C7.83654 1.39182 7.58259 1.53846 7.3077 1.53846H6.92308C6.977 2.09991 6.81543 2.66932 6.15385 2.69231C5.94987 2.69231 5.75412 2.61126 5.6099 2.46703C5.46567 2.3228 5.38462 2.12706 5.38462 1.92308ZM9.61539 1.53846H11.9231C12.198 1.53846 12.4519 1.39183 12.5893 1.15385C12.7267 0.915864 12.7267 0.622593 12.5893 0.384615C12.4519 0.146637 12.198 0 11.9231 0H9.61539C9.3405 0 9.08656 0.146633 8.9492 0.384615C8.81183 0.622598 8.81183 0.915868 8.9492 1.15385C9.08656 1.39182 9.34051 1.53846 9.61539 1.53846ZM16.5385 13.8462H15.3846V5.38462C15.3846 5.18063 15.3036 4.98489 15.1594 4.84066C15.0151 4.69643 14.8194 4.61538 14.6154 4.61538H6.92308C7.14613 3.07692 5.16159 3.07692 5.38462 4.61538H0.769232C0.565249 4.61538 0.369504 4.69643 0.225275 4.84066C0.0810462 4.98489 0 5.18063 0 5.38462V19.2308C0 19.4348 0.0810462 19.6305 0.225275 19.7747C0.369504 19.919 0.565249 20 0.769232 20H14.6154C14.8194 20 15.0151 19.919 15.1594 19.7747C15.3036 19.6305 15.3846 19.4348 15.3846 19.2308V15.3846H16.5385C16.8134 15.3846 17.0673 15.238 17.2047 15C17.342 14.762 17.342 14.4687 17.2047 14.2308C17.0673 13.9928 16.8134 13.8462 16.5385 13.8462ZM14.2308 1.53846H16.5385C16.8134 1.53846 17.0673 1.39183 17.2047 1.15385C17.342 0.915864 17.342 0.622593 17.2047 0.384615C17.0673 0.146637 16.8134 0 16.5385 0H14.2308C13.9559 0 13.7019 0.146633 13.5646 0.384615C13.4272 0.622598 13.4272 0.915868 13.5646 1.15385C13.7019 1.39182 13.9559 1.53846 14.2308 1.53846ZM20 0H18.8462C18.5713 0 18.3173 0.146633 18.18 0.384615C18.0426 0.622598 18.0426 0.915868 18.18 1.15385C18.3173 1.39182 18.5713 1.53846 18.8462 1.53846H19.2308V1.92308C19.2308 2.19797 19.3774 2.45191 19.6154 2.58927C19.8534 2.72664 20.1467 2.72664 20.3846 2.58927C20.6226 2.45191 20.7693 2.19796 20.7693 1.92308V0.769231C20.7693 0.565248 20.6882 0.369503 20.544 0.225275C20.3997 0.0810462 20.204 0 20 0ZM19.2308 13.4615V13.8462H18.8462C18.5713 13.8462 18.3173 13.9928 18.18 14.2308C18.0426 14.4688 18.0426 14.762 18.18 15C18.3173 15.238 18.5713 15.3846 18.8462 15.3846H20C20.204 15.3846 20.3997 15.3036 20.544 15.1593C20.6882 15.0151 20.7693 14.8194 20.7693 14.6154V13.4615C20.7693 13.1866 20.6226 12.9327 20.3846 12.7953C20.1467 12.658 19.8534 12.658 19.6154 12.7953C19.3774 12.9327 19.2308 13.1867 19.2308 13.4615ZM20 3.46154C19.796 3.46154 19.6003 3.54258 19.4561 3.68681C19.3118 3.83104 19.2308 4.02679 19.2308 4.23077V6.53846C19.2308 6.81336 19.3774 7.0673 19.6154 7.20466C19.8534 7.34202 20.1467 7.34202 20.3846 7.20466C20.6226 7.0673 20.7693 6.81335 20.7693 6.53846V4.23077C20.7693 4.02679 20.6882 3.83104 20.544 3.68681C20.3997 3.54258 20.204 3.46154 20 3.46154ZM20 8.07692C19.796 8.07692 19.6003 8.15797 19.4561 8.3022C19.3118 8.44643 19.2308 8.64217 19.2308 8.84615V11.1538C19.2308 11.4287 19.3774 11.6827 19.6154 11.82C19.8534 11.9574 20.1467 11.9574 20.3846 11.82C20.6226 11.6827 20.7693 11.4287 20.7693 11.1538V8.84615C20.7693 8.64217 20.6882 8.44643 20.544 8.3022C20.3997 8.15797 20.204 8.07692 20 8.07692Z" fill="#001F60"/>
</svg>
