<svg width="14" height="14" viewBox="0 0 14 14" fill="none" xmlns="http://www.w3.org/2000/svg">
<path d="M13.6919 10.2036V13.1606C13.6919 13.2195 13.6834 13.2741 13.6709 13.3246C13.612 13.6148 13.3554 13.8336 13.0526 13.8336L0.968619 13.8335C0.644722 13.8335 0.375624 13.5853 0.341946 13.2698C0.333496 13.2319 0.333496 13.1983 0.333496 13.1562V10.1993C0.333496 9.85014 0.619493 9.56836 0.964405 9.56836C1.1368 9.56836 1.29665 9.63983 1.41025 9.75343C1.52384 9.86704 1.59532 10.0269 1.59532 10.1993V12.5673H12.4343V10.1993C12.4343 9.85014 12.7203 9.56837 13.0652 9.56837C13.2376 9.56837 13.3975 9.63984 13.5111 9.75344C13.6205 9.87138 13.6919 10.0312 13.6919 10.2036L13.6919 10.2036Z" fill="#44A1E7"/>
<path d="M10.6512 7.24226L7.55135 10.3421C7.54713 10.3506 7.53868 10.3548 7.53457 10.3589C7.42097 10.4725 7.2738 10.544 7.12664 10.565C7.11397 10.565 7.10141 10.5692 7.08874 10.5692C7.0635 10.5734 7.03827 10.5734 7.01304 10.5734L6.94157 10.5692C6.9289 10.5692 6.91634 10.565 6.90367 10.565C6.75227 10.544 6.60922 10.4725 6.49574 10.3589C6.49151 10.3547 6.48306 10.3462 6.47895 10.3421L3.37908 7.24226C3.23602 7.0992 3.16455 6.91001 3.16455 6.72074C3.16455 6.53144 3.23602 6.34213 3.37908 6.19921C3.66508 5.91322 4.13194 5.91322 4.42215 6.19921L6.28545 8.0625L6.28533 1.23606C6.28533 0.832249 6.61758 0.5 7.02139 0.5C7.22325 0.5 7.40832 0.584145 7.54291 0.714527C7.67752 0.849136 7.75744 1.02998 7.75744 1.23605V8.06249L9.62073 6.1992C9.90673 5.91321 10.3736 5.91321 10.6638 6.1992C10.9373 6.48943 10.9373 6.95626 10.6513 7.24228L10.6512 7.24226Z" fill="#44A1E7"/>
</svg>
