<svg width="25" height="24" viewBox="0 0 25 24" fill="none" xmlns="http://www.w3.org/2000/svg">
<path d="M24.0451 17.4661V22.7886C24.0451 22.8946 24.0299 22.993 24.0073 23.0839C23.9012 23.6063 23.4394 24 22.8944 24L1.14322 23.9998C0.560207 23.9998 0.0758308 23.553 0.0152094 22.9852C0 22.9169 0 22.8565 0 22.7807V17.4582C0 16.8298 0.514794 16.3226 1.13564 16.3226C1.44595 16.3226 1.73368 16.4513 1.93815 16.6557C2.14262 16.8602 2.27128 17.1479 2.27128 17.4583V21.7207H21.7815V17.4583C21.7815 16.8298 22.2963 16.3226 22.9172 16.3226C23.2275 16.3226 23.5152 16.4513 23.7197 16.6558C23.9165 16.868 24.0452 17.1558 24.0452 17.4661L24.0451 17.4661Z" fill="#EF5DA8"/>
<path d="M18.5717 12.1361L12.9919 17.7158C12.9843 17.731 12.9691 17.7386 12.9617 17.746C12.7573 17.9505 12.4924 18.0792 12.2275 18.117C12.2047 18.117 12.182 18.1246 12.1592 18.1246C12.1138 18.1322 12.0684 18.1322 12.023 18.1322L11.8943 18.1246C11.8715 18.1246 11.8489 18.117 11.8261 18.117C11.5536 18.0792 11.2961 17.9505 11.0918 17.746C11.0842 17.7384 11.069 17.7232 11.0616 17.7158L5.48185 12.1361C5.22435 11.8786 5.0957 11.538 5.0957 11.1973C5.0957 10.8566 5.22435 10.5158 5.48185 10.2586C5.99665 9.74379 6.837 9.74379 7.35939 10.2586L10.7133 13.6125L10.7131 1.32491C10.7131 0.598048 11.3112 0 12.038 0C12.4014 0 12.7345 0.151461 12.9768 0.386149C13.2191 0.628445 13.3629 0.953968 13.3629 1.32489V13.6125L16.7168 10.2586C17.2316 9.74377 18.072 9.74377 18.5944 10.2586C19.0866 10.781 19.0866 11.6213 18.5718 12.1361L18.5717 12.1361Z" fill="#EF5DA8"/>
</svg>
