<svg width="160" height="40" viewBox="0 0 160 40" fill="none" xmlns="http://www.w3.org/2000/svg">
<path fill-rule="evenodd" clip-rule="evenodd" d="M0.000261307 0V40H0.0528281C3.14418 17.265 21.7179 4.44487 39.7895 0H0.000261307ZM39.7908 40V0.000380771C26.5806 6.6918 15.5058 19.4011 14.4642 40H39.7908ZM54.0652 26.4489H63.8126V24.0186H56.5033V21.0658H63.5521V18.7647H56.5033V15.7533H63.8126V13.3601H54.0652V26.4489ZM71.5605 16.1085L69.1429 21.6815H73.9773L71.5605 16.1085ZM74.9653 23.9804H68.154L67.0403 26.4487H64.3802L70.2202 13.3598H72.8962L78.7362 26.4487H76.061L74.9653 23.9804ZM84.606 14.9495C86.0175 14.9495 87.246 15.6619 87.6917 16.4093L89.646 15.4C88.6588 13.3798 86.5558 12.7987 84.5294 12.7987C82.129 12.8177 79.4894 13.9204 79.4894 16.6151C79.4894 19.549 81.9413 20.2598 84.606 20.5781C86.3342 20.7663 87.615 21.2707 87.615 22.5048C87.615 23.925 86.1646 24.4695 84.6228 24.4695C83.0421 24.4695 81.5338 23.8324 80.9579 22.3924L78.9135 23.4589C79.8797 25.8509 81.9229 26.6737 84.5817 26.6737C87.4877 26.6737 90.0557 25.421 90.0557 22.5048C90.0557 19.3831 87.5254 18.6703 84.8075 18.336C83.2456 18.1478 81.9061 17.8324 81.9061 16.6867C81.9061 15.7145 82.7819 14.9495 84.606 14.9495ZM95.3234 15.4923H91.1982V13.2473H101.91V15.4923H97.7837V26.3374H95.3234V15.4923ZM110.585 21.5703L113.003 15.9973L115.421 21.5703H110.585ZM109.6 23.8693H116.407L117.504 26.3375H120.185L114.341 13.2486H111.663L105.824 26.3375H108.482L109.6 23.8693ZM130.384 16.4448C129.508 15.604 128.207 15.137 127.072 15.137C124.283 15.137 122.59 17.2697 122.59 19.961C122.59 22.1118 123.834 24.3349 127.072 24.3349C128.094 24.3349 128.987 24.1118 130.009 23.2899V20.972H126.682V18.7627H132.26V24.281C130.975 25.7581 129.362 26.6377 127.072 26.6377C122.18 26.6377 120.188 23.4002 120.188 19.961C120.188 16.2777 122.479 12.8751 127.072 12.8751C128.82 12.8751 130.569 13.5488 131.909 14.8756L130.384 16.4448ZM136.731 26.3369H134.296V13.2481H136.731V26.3369ZM141.498 13.2472V24.0573H148.196V26.3373H139.043V13.2472H141.498ZM149.888 26.3371H159.638V23.9072H152.328V20.9543H159.379V18.6529H152.328V15.6415H159.638V13.2482H149.888V26.3371Z" fill="white"/>
</svg>
