<svg width="79" height="40" viewBox="0 0 79 40" fill="none" xmlns="http://www.w3.org/2000/svg">
<g clip-path="url(#clip0_49_174)">
<path d="M10 10.4168C4.475 10.4168 0 14.8168 0 20.2435C0 24.586 2.865 28.2685 6.8375 29.5668C7.3375 29.6593 7.52083 29.3551 7.52083 29.0943C7.52083 28.861 7.5125 28.2426 7.50833 27.4235C4.72667 28.016 4.14 26.1051 4.14 26.1051C3.685 24.971 3.0275 24.6676 3.0275 24.6676C2.12167 24.0585 3.0975 24.071 3.0975 24.071C4.10167 24.1393 4.62917 25.0835 4.62917 25.0835C5.52083 26.586 6.97 26.1518 7.54167 25.901C7.63167 25.2651 7.88917 24.8326 8.175 24.5868C5.95417 24.341 3.62 23.496 3.62 19.731C3.62 18.6585 4.0075 17.7818 4.64917 17.0943C4.53667 16.846 4.19917 15.8468 4.73667 14.4935C4.73667 14.4935 5.57417 14.2301 7.48667 15.501C8.28667 15.2826 9.13667 15.1743 9.98667 15.1693C10.8367 15.1743 11.6867 15.2826 12.4867 15.501C14.3867 14.2301 15.2242 14.4935 15.2242 14.4935C15.7617 15.8468 15.4242 16.846 15.3242 17.0943C15.9617 17.7818 16.3492 18.6585 16.3492 19.731C16.3492 23.506 14.0117 24.3368 11.7867 24.5785C12.1367 24.8735 12.4617 25.476 12.4617 26.3968C12.4617 27.7118 12.4492 28.7685 12.4492 29.0876C12.4492 29.3451 12.6242 29.6526 13.1367 29.5543C17.1375 28.2643 20 24.5793 20 20.2435C20 14.8168 15.5225 10.4168 10 10.4168Z" fill="#44A1E7"/>
</g>
<path d="M37.136 25.126C36.0533 25.126 35.148 24.9253 34.42 24.524C33.692 24.1227 33.146 23.544 32.782 22.788C32.418 22.032 32.236 21.1267 32.236 20.072C32.236 19.0267 32.4273 18.126 32.81 17.37C33.1926 16.614 33.7433 16.0307 34.462 15.62C35.1806 15.2093 36.0486 15.004 37.066 15.004C37.7846 15.004 38.4053 15.1113 38.928 15.326C39.46 15.5313 39.936 15.8393 40.356 16.25L39.922 17.16C39.614 16.8893 39.3153 16.6747 39.026 16.516C38.746 16.3573 38.452 16.2407 38.144 16.166C37.836 16.082 37.4766 16.04 37.066 16.04C35.8993 16.04 35.0033 16.3947 34.378 17.104C33.762 17.804 33.454 18.798 33.454 20.086C33.454 21.3833 33.7526 22.3773 34.35 23.068C34.9566 23.7587 35.8946 24.104 37.164 24.104C37.6306 24.104 38.074 24.062 38.494 23.978C38.9233 23.8847 39.3386 23.754 39.74 23.586L39.488 24.216V20.744H36.968V19.834H40.482V24.412C40.0806 24.6267 39.572 24.7993 38.956 24.93C38.3493 25.0607 37.7426 25.126 37.136 25.126ZM42.4342 25V17.972H43.5682V25H42.4342ZM42.2942 16.376V15.102H43.6942V16.376H42.2942ZM47.9821 25.126C47.2915 25.126 46.7641 24.93 46.4001 24.538C46.0361 24.1367 45.8541 23.5347 45.8541 22.732V18.854H44.4821V17.972H45.8541V16.054L46.9881 15.732V17.972H49.0041V18.854H46.9881V22.606C46.9881 23.166 47.0815 23.5673 47.2681 23.81C47.4641 24.0433 47.7535 24.16 48.1361 24.16C48.3135 24.16 48.4721 24.146 48.6121 24.118C48.7521 24.0807 48.8781 24.0387 48.9901 23.992V24.944C48.8595 25 48.7008 25.042 48.5141 25.07C48.3368 25.1073 48.1595 25.126 47.9821 25.126ZM50.2307 25V15.13H51.3927V19.498H57.3427V15.13H58.4907V25H57.3427V20.492H51.3927V25H50.2307ZM63.0214 25.126C62.1908 25.126 61.5608 24.8973 61.1314 24.44C60.7114 23.9827 60.5014 23.2827 60.5014 22.34V17.972H61.6354V22.312C61.6354 22.956 61.7661 23.432 62.0274 23.74C62.2888 24.0387 62.6948 24.188 63.2454 24.188C63.8614 24.188 64.3561 23.9873 64.7294 23.586C65.1028 23.1847 65.2894 22.648 65.2894 21.976V17.972H66.4234V25H65.3174V23.418H65.4994C65.3034 23.9593 64.9861 24.3793 64.5474 24.678C64.1181 24.9767 63.6094 25.126 63.0214 25.126ZM71.8715 25.126C71.2368 25.126 70.6908 24.9673 70.2335 24.65C69.7762 24.3233 69.4682 23.88 69.3095 23.32H69.4635V25H68.3435V14.696H69.4775V19.61H69.3095C69.4682 19.0687 69.7762 18.6393 70.2335 18.322C70.6908 18.0047 71.2368 17.846 71.8715 17.846C72.5062 17.846 73.0522 17.9953 73.5095 18.294C73.9762 18.5833 74.3355 18.9987 74.5875 19.54C74.8488 20.0813 74.9795 20.73 74.9795 21.486C74.9795 22.242 74.8488 22.8907 74.5875 23.432C74.3262 23.9733 73.9622 24.3933 73.4955 24.692C73.0382 24.9813 72.4968 25.126 71.8715 25.126ZM71.6335 24.202C72.2962 24.202 72.8282 23.9733 73.2295 23.516C73.6308 23.0587 73.8315 22.382 73.8315 21.486C73.8315 20.59 73.6308 19.9133 73.2295 19.456C72.8282 18.9893 72.2962 18.756 71.6335 18.756C70.9708 18.756 70.4388 18.9893 70.0375 19.456C69.6455 19.9133 69.4495 20.59 69.4495 21.486C69.4495 22.3727 69.6455 23.0493 70.0375 23.516C70.4388 23.9733 70.9708 24.202 71.6335 24.202Z" fill="#808FB0"/>
<defs>
<clipPath id="clip0_49_174">
<rect width="20" height="20" fill="white" transform="translate(0 10)"/>
</clipPath>
</defs>
</svg>
