<svg width="50" height="50" viewBox="0 0 50 50" fill="none" xmlns="http://www.w3.org/2000/svg">
<mask id="mask0_1137_694" style="mask-type:alpha" maskUnits="userSpaceOnUse" x="0" y="0" width="50" height="50">
<rect width="50" height="50" rx="5" fill="#C4C4C4"/>
</mask>
<g mask="url(#mask0_1137_694)">
<rect width="50" height="50" rx="5" fill="white"/>
<path d="M25 1.04218C11.1875 1.04218 0 12.0422 0 25.6088C0 36.4651 7.1625 45.6713 17.0938 48.9172C18.3438 49.1484 18.8021 48.388 18.8021 47.7359C18.8021 47.1526 18.7812 45.6068 18.7708 43.5588C11.8167 45.0401 10.35 40.263 10.35 40.263C9.2125 37.4276 7.56875 36.6693 7.56875 36.6693C5.30417 35.1463 7.74375 35.1776 7.74375 35.1776C10.2542 35.3484 11.5729 37.7088 11.5729 37.7088C13.8021 41.4651 17.425 40.3797 18.8542 39.7526C19.0792 38.163 19.7229 37.0818 20.4375 36.4672C14.8854 35.8526 9.05 33.7401 9.05 24.3276C9.05 21.6463 10.0187 19.4547 11.6229 17.7359C11.3417 17.1151 10.4979 14.6172 11.8417 11.2338C11.8417 11.2338 13.9354 10.5755 18.7167 13.7526C20.7167 13.2068 22.8417 12.9359 24.9667 12.9234C27.0917 12.9359 29.2167 13.2068 31.2167 13.7526C35.9667 10.5755 38.0604 11.2338 38.0604 11.2338C39.4042 14.6172 38.5604 17.1151 38.3104 17.7359C39.9042 19.4547 40.8729 21.6463 40.8729 24.3276C40.8729 33.7651 35.0292 35.8422 29.4667 36.4463C30.3417 37.1838 31.1542 38.6901 31.1542 40.9922C31.1542 44.2797 31.1229 46.9213 31.1229 47.7193C31.1229 48.363 31.5604 49.1318 32.8417 48.8859C42.8438 45.6609 50 36.4484 50 25.6088C50 12.0422 38.8063 1.04218 25 1.04218Z" fill="#44A1E7"/>
</g>
</svg>
