<svg width="20" height="20" viewBox="0 0 20 20" fill="none" xmlns="http://www.w3.org/2000/svg">
<g clip-path="url(#clip0_49_152)">
<path d="M10 0.416809C4.475 0.416809 0 4.81681 0 10.2435C0 14.586 2.865 18.2685 6.8375 19.5668C7.3375 19.6593 7.52083 19.3551 7.52083 19.0943C7.52083 18.861 7.5125 18.2426 7.50833 17.4235C4.72667 18.016 4.14 16.1051 4.14 16.1051C3.685 14.971 3.0275 14.6676 3.0275 14.6676C2.12167 14.0585 3.0975 14.071 3.0975 14.071C4.10167 14.1393 4.62917 15.0835 4.62917 15.0835C5.52083 16.586 6.97 16.1518 7.54167 15.901C7.63167 15.2651 7.88917 14.8326 8.175 14.5868C5.95417 14.341 3.62 13.496 3.62 9.73098C3.62 8.65848 4.0075 7.78181 4.64917 7.09431C4.53667 6.84598 4.19917 5.84681 4.73667 4.49348C4.73667 4.49348 5.57417 4.23014 7.48667 5.50098C8.28667 5.28264 9.13667 5.17431 9.98667 5.16931C10.8367 5.17431 11.6867 5.28264 12.4867 5.50098C14.3867 4.23014 15.2242 4.49348 15.2242 4.49348C15.7617 5.84681 15.4242 6.84598 15.3242 7.09431C15.9617 7.78181 16.3492 8.65848 16.3492 9.73098C16.3492 13.506 14.0117 14.3368 11.7867 14.5785C12.1367 14.8735 12.4617 15.476 12.4617 16.3968C12.4617 17.7118 12.4492 18.7685 12.4492 19.0876C12.4492 19.3451 12.6242 19.6526 13.1367 19.5543C17.1375 18.2643 20 14.5793 20 10.2435C20 4.81681 15.5225 0.416809 10 0.416809Z" fill="#44A1E7"/>
</g>
<defs>
<clipPath id="clip0_49_152">
<rect width="20" height="20" fill="white"/>
</clipPath>
</defs>
</svg>
