<svg width="32" height="32" viewBox="0 0 32 32" fill="none" xmlns="http://www.w3.org/2000/svg">
<path d="M29.3332 16H21.3332L18.6665 20H13.3332L10.6665 16H2.6665" stroke="#658F72" stroke-width="2" stroke-linecap="round" stroke-linejoin="round"/>
<path d="M7.2665 6.8135L2.6665 16.0002V24.0002C2.6665 24.7074 2.94746 25.3857 3.44755 25.8858C3.94765 26.3859 4.62593 26.6668 5.33317 26.6668H26.6665C27.3737 26.6668 28.052 26.3859 28.5521 25.8858C29.0522 25.3857 29.3332 24.7074 29.3332 24.0002V16.0002L24.7332 6.8135C24.5124 6.36921 24.1721 5.99532 23.7504 5.73387C23.3288 5.47241 22.8426 5.33376 22.3465 5.3335H9.65317C9.15706 5.33376 8.67086 5.47241 8.24923 5.73387C7.8276 5.99532 7.48727 6.36921 7.2665 6.8135V6.8135Z" stroke="#658F72" stroke-width="2" stroke-linecap="round" stroke-linejoin="round"/>
</svg>
