<svg width="367" height="271" viewBox="0 0 367 271" fill="none" xmlns="http://www.w3.org/2000/svg">
    <path d="M93.563 -8.40708e-05C122.057 -8.1669e-05 136.504 17.8406 148.54 32.1138C160.58 46.7827 168.605 55.5051 184.656 55.5051C200.707 55.5051 209.135 46.7827 220.772 32.1138C232.408 17.8406 247.258 -7.11153e-05 275.749 -6.87137e-05C304.243 -6.63119e-05 318.689 17.8406 330.726 32.1138C342.766 46.7827 350.791 55.5051 366.842 55.5051L366.842 131.04C338.348 131.04 323.901 113.199 311.864 98.9262C299.825 84.2573 291.799 75.5348 275.749 75.5348C259.698 75.5348 251.27 84.2573 239.633 98.9262C227.997 113.199 213.147 131.04 184.656 131.04C156.162 131.04 141.715 113.199 129.679 98.9262C117.639 84.2573 109.614 75.5348 93.563 75.5348C77.5125 75.5348 69.0837 84.2573 57.4475 98.9262C45.8112 113.199 30.9609 131.04 2.47006 131.04L2.47007 55.5051C18.5206 55.5051 26.9494 46.7826 38.5857 32.1137C50.2219 17.8406 65.0722 -8.64724e-05 93.563 -8.40708e-05Z" fill="#001F60"/>
    <path d="M91.0929 139.96C119.587 139.96 134.033 157.801 146.07 172.074C158.11 186.743 166.135 195.465 182.186 195.465C198.236 195.465 206.665 186.743 218.301 172.074C229.938 157.801 244.788 139.96 273.279 139.96C301.773 139.96 316.219 157.801 328.256 172.074C340.296 186.743 348.321 195.465 364.372 195.465L364.372 271C335.878 271 321.431 253.159 309.394 238.886C297.355 224.217 289.329 215.495 273.279 215.495C257.228 215.495 248.799 224.217 237.163 238.886C225.527 253.159 210.677 271 182.186 271C153.692 271 139.245 253.159 127.208 238.886C115.169 224.217 107.143 215.495 91.0929 215.495C75.0424 215.495 66.6136 224.217 54.9774 238.886C43.3411 253.159 28.4908 271 -3.05176e-05 271L-2.41505e-05 195.465C16.0505 195.465 24.4793 186.743 36.1156 172.074C47.7518 157.801 62.6021 139.96 91.0929 139.96Z" fill="#001F60"/>
</svg>