<svg width="50" height="18" viewBox="0 0 50 18" fill="none" xmlns="http://www.w3.org/2000/svg">
<path d="M12.499 0.000275631C16.409 0.000275928 18.3914 2.44065 20.0432 4.39302C21.6953 6.39953 22.7965 7.59264 24.999 7.59264C27.2015 7.59264 28.3581 6.39953 29.9549 4.39302C31.5517 2.44065 33.5894 0.000277229 37.499 0.000277526C41.409 0.000277822 43.3914 2.44065 45.0432 4.39302C46.6953 6.39953 47.7965 7.59264 49.999 7.59264L49.999 17.9248C46.089 17.9248 44.1066 15.4844 42.4549 13.5321C40.8028 11.5256 39.7015 10.3324 37.499 10.3324C35.2965 10.3324 34.1399 11.5256 32.5432 13.5321C30.9464 15.4844 28.9086 17.9248 24.999 17.9248C21.089 17.9248 19.1066 15.4844 17.4549 13.5321C15.8028 11.5256 14.7015 10.3324 12.499 10.3324C10.2965 10.3324 9.13991 11.5256 7.54316 13.5321C5.9464 15.4844 3.90861 17.9248 -0.000976562 17.9248L-0.00097552 7.59264C2.20152 7.59264 3.35814 6.39952 4.9549 4.39302C6.55165 2.44064 8.58944 0.000275335 12.499 0.000275631Z" fill="#001F60"/>
</svg>
