<svg width="236" height="30" viewBox="0 0 236 30" fill="none" xmlns="http://www.w3.org/2000/svg">
<path fill-rule="evenodd" clip-rule="evenodd" d="M105.464 0C102.632 0 100.042 0.309345 97.7036 0.940731C95.3758 1.55992 93.3534 2.49195 91.6599 3.75513C89.9563 5.02584 88.6372 6.61761 87.7138 8.51989C86.7826 10.4252 86.3337 12.5946 86.3337 15C86.3337 17.4063 86.783 19.5812 87.7131 21.4979L87.7145 21.5008C88.6385 23.3906 89.9576 24.9751 91.6599 26.2449C93.3521 27.5071 95.3732 28.4454 97.6999 29.0775L97.7035 29.0785L97.7072 29.0794C100.044 29.6972 102.633 30 105.464 30C108.295 30 110.872 29.6973 113.185 29.0786L113.187 29.078L113.19 29.0775C115.517 28.4453 117.533 27.5065 119.214 26.2422C120.904 24.9712 122.21 23.3854 123.12 21.4948L123.122 21.4919C124.037 19.5767 124.479 17.4039 124.479 15C124.479 12.5973 124.037 10.4304 123.121 8.52677C122.211 6.62334 120.905 5.02995 119.214 3.75776C117.532 2.4929 115.515 1.56044 113.187 0.941159C110.873 0.309142 108.295 0 105.464 0ZM135.513 0.672353H125.056L139.531 29.2892H149.194L163.773 0.672353H153.309L144.42 19.0923L135.513 0.672353ZM195.459 0.672353H166.515V29.2892H195.727V21.4384H176.056V18.5124H194.46V10.6616H176.056V8.52313H195.459V0.672353ZM209.35 0.672353H198.473L212.502 17.7983V29.2892H221.832V17.7983L235.862 0.672353H224.983L217.185 10.6095L209.35 0.672353ZM101.91 8.21087C102.905 8.0002 104.086 7.88919 105.464 7.88919C107.529 7.88919 109.154 8.12563 110.378 8.55619C111.654 9.00506 112.586 9.56537 113.233 10.2019L113.236 10.205L113.239 10.2081C113.925 10.8716 114.376 11.5981 114.623 12.3915L114.625 12.3998L114.628 12.408C114.913 13.2737 115.053 14.1364 115.053 15C115.053 15.8637 114.913 16.7342 114.627 17.6152L114.625 17.6195L114.624 17.6238C114.378 18.4039 113.927 19.1259 113.239 19.7919L113.236 19.795L113.233 19.7981C112.586 20.4346 111.654 20.9949 110.378 21.4438C109.154 21.8744 107.529 22.1108 105.464 22.1108C104.086 22.1108 102.902 22.0062 101.904 21.807C100.887 21.5913 100.039 21.3107 99.3461 20.9762C98.6398 20.6224 98.0749 20.2255 97.6339 19.795C97.171 19.3431 96.8149 18.8715 96.5539 18.382C96.2822 17.8595 96.0878 17.319 95.9683 16.7586C95.8543 16.1627 95.7982 15.5768 95.7982 15C95.7982 14.4368 95.8542 13.8644 95.9679 13.2818C96.0874 12.7207 96.2816 12.1876 96.5517 11.6798L96.5539 11.6755L96.5562 11.6712C96.8175 11.1694 97.1732 10.6931 97.6339 10.2434L97.6387 10.2387L97.6435 10.234C98.0841 9.79328 98.6479 9.39207 99.3525 9.03976C100.039 8.69632 100.883 8.41636 101.897 8.2134L101.904 8.21217L101.91 8.21087Z" fill="#FFFFFF"/>
<path d="M20.9211 6.20014e-05C27.4651 6.24973e-05 30.7831 4.08447 33.5475 7.35212C36.3127 10.7104 38.1558 12.7073 41.8421 12.7073C45.5284 12.7073 47.4642 10.7104 50.1367 7.35212C52.8091 4.08447 56.2197 6.46761e-05 62.7632 6.51719e-05C69.3072 6.56678e-05 72.6252 4.08447 75.3896 7.35213C78.1548 10.7104 79.9979 12.7073 83.6842 12.7073L83.6842 30.0001C77.1401 30.0001 73.8222 25.9157 71.0577 22.648C68.2926 19.2897 66.4494 17.2928 62.7632 17.2928C59.0769 17.2928 57.1411 19.2897 54.4686 22.648C51.7961 25.9157 48.3855 30.0001 41.8421 30.0001C35.298 30.0001 31.9801 25.9156 29.2156 22.648C26.4505 19.2897 24.6073 17.2928 20.9211 17.2928C17.2348 17.2928 15.299 19.2897 12.6265 22.648C9.95403 25.9156 6.54341 30.0001 0 30.0001L1.74419e-06 12.7073C3.68629 12.7073 5.6221 10.7104 8.29457 7.35212C10.967 4.08447 14.3776 6.15056e-05 20.9211 6.20014e-05Z" fill="#FFFFFF"/>
</svg>
