<svg width="120" height="16" viewBox="0 0 120 16" fill="none" xmlns="http://www.w3.org/2000/svg">
<path fill-rule="evenodd" clip-rule="evenodd" d="M53.6558 0C52.2149 0 50.8973 0.157388 49.7076 0.478623C48.5233 0.79365 47.4943 1.26785 46.6327 1.91052C45.7659 2.55703 45.0948 3.36689 44.625 4.33472C44.1512 5.30408 43.9229 6.40784 43.9229 7.63166C43.9229 8.85591 44.1514 9.96247 44.6246 10.9376L44.6254 10.9391C45.0954 11.9006 45.7666 12.7068 46.6327 13.3528C47.4936 13.995 48.5219 14.4724 49.7057 14.794L49.7075 14.7945L49.7094 14.795C50.8984 15.1093 52.2153 15.2633 53.6558 15.2633C55.0962 15.2633 56.4073 15.1093 57.5843 14.7945L57.5854 14.7942L57.5865 14.794C58.7704 14.4723 59.7962 13.9947 60.6515 13.3515C61.5113 12.7048 62.1758 11.898 62.6389 10.9361L62.6397 10.9346C63.1054 9.96017 63.3302 8.85471 63.3302 7.63166C63.3302 6.40923 63.1056 5.30674 62.6395 4.33823C62.1766 3.3698 61.5121 2.55913 60.6515 1.91186C59.7958 1.26833 58.7695 0.793917 57.5854 0.47884C56.4078 0.157285 55.0963 0 53.6558 0ZM68.9442 0.342078H63.6238L70.9884 14.9017H75.9047L83.3222 0.342078H77.9986L73.4759 9.71373L68.9442 0.342078ZM99.4431 0.342078H84.7173V14.9017H99.5799V10.9074H89.5717V9.41867H98.9348V5.42438H89.5717V4.33637H99.4431V0.342078ZM106.511 0.342078H100.977L108.115 9.05535V14.9017H112.862V9.05535L119.999 0.342078H114.465L110.497 5.39786L106.511 0.342078ZM51.8476 4.17751C52.3537 4.07032 52.9548 4.01384 53.6558 4.01384C54.7067 4.01384 55.5334 4.13414 56.156 4.3532C56.805 4.58157 57.2795 4.86664 57.6087 5.1905L57.6103 5.19208L57.6119 5.19365C57.9605 5.53121 58.1899 5.90086 58.3157 6.30451L58.317 6.30873L58.3184 6.31294C58.4633 6.75337 58.5345 7.19228 58.5345 7.63166C58.5345 8.07111 58.4633 8.51398 58.3178 8.96223L58.317 8.9644L58.3164 8.96657C58.191 9.3635 57.9618 9.73082 57.6119 10.0697L57.6103 10.0712L57.6087 10.0728C57.2795 10.3967 56.805 10.6817 56.156 10.9101C55.5334 11.1292 54.7067 11.2495 53.6558 11.2495C52.9546 11.2495 52.3523 11.1962 51.8444 11.0949C51.3272 10.9852 50.8958 10.8424 50.5432 10.6722C50.1839 10.4922 49.8965 10.2903 49.6721 10.0713C49.4366 9.84134 49.2554 9.60142 49.1226 9.35236C48.9844 9.0865 48.8855 8.81153 48.8247 8.52639C48.7667 8.2232 48.7381 7.92512 48.7381 7.63166C48.7381 7.34514 48.7666 7.05391 48.8245 6.75747C48.8853 6.47199 48.9841 6.20078 49.1215 5.9424L49.1227 5.94024L49.1238 5.93806C49.2568 5.68275 49.4377 5.44042 49.6721 5.21159L49.6746 5.20921L49.677 5.20681C49.9012 4.9826 50.188 4.77848 50.5465 4.59922C50.896 4.42449 51.325 4.28205 51.8413 4.17879L51.8444 4.17817L51.8476 4.17751Z" fill="#44A1E7"/>
<path d="M10.6437 0.00035044C13.9732 0.000350692 15.6613 2.0784 17.0678 3.74091C18.4746 5.44952 19.4124 6.4655 21.2879 6.4655C23.1634 6.4655 24.1483 5.44952 25.5079 3.74091C26.8676 2.07841 28.6029 0.000351801 31.932 0.000352053C35.2615 0.000352305 36.9496 2.07841 38.3561 3.74091C39.7629 5.44952 40.7007 6.4655 42.5762 6.4655L42.5762 15.2637C39.2467 15.2637 37.5586 13.1856 36.1521 11.5231C34.7453 9.8145 33.8075 8.79852 31.932 8.79852C30.0565 8.79852 29.0716 9.8145 27.7119 11.5231C26.3522 13.1856 24.617 15.2637 21.2879 15.2637C17.9584 15.2637 16.2703 13.1856 14.8638 11.5231C13.457 9.8145 12.5192 8.79852 10.6437 8.79852C8.7682 8.79852 7.78331 9.8145 6.42362 11.5231C5.06393 13.1856 3.32868 15.2637 -0.000457764 15.2637L-0.000456876 6.4655C1.87504 6.4655 2.85994 5.44952 4.21963 3.74091C5.57932 2.0784 7.31456 0.000350188 10.6437 0.00035044Z" fill="#44A1E7"/>
</svg>
