<svg width="76" height="40" viewBox="0 0 76 40" fill="none" xmlns="http://www.w3.org/2000/svg">
<g clip-path="url(#clip0_49_196)">
<path d="M17.7708 17.7568C17.1391 17.7568 16.5833 18.0226 16.1741 18.4368C14.6699 17.3801 12.6416 16.7001 10.3941 16.6276L11.5616 11.2893L15.2791 12.136C15.2791 13.0593 16.0208 13.8135 16.9308 13.8135C17.8583 13.8135 18.6041 13.0393 18.6041 12.1151C18.6041 11.191 17.8633 10.4168 16.9316 10.4168C16.2824 10.4168 15.7224 10.8143 15.4433 11.3576L11.3374 10.4343C11.1308 10.3785 10.9283 10.5285 10.8733 10.7385L9.59161 16.6235C7.36161 16.7176 5.35494 17.3968 3.84577 18.4543C3.4366 18.0226 2.85911 17.7568 2.22744 17.7568C-0.115895 17.7568 -0.883395 20.9476 1.26244 22.0385C1.1866 22.376 1.15244 22.736 1.15244 23.0951C1.15244 26.6793 5.13161 29.5835 10.0174 29.5835C14.9241 29.5835 18.9033 26.6793 18.9033 23.0951C18.9033 22.736 18.8658 22.3593 18.7733 22.021C20.8758 20.926 20.1016 17.7585 17.7708 17.7568ZM4.66744 22.2651C4.66744 21.3243 5.40911 20.5668 6.34077 20.5668C7.25077 20.5668 7.99327 21.3193 7.99327 22.2651C7.99327 23.1893 7.25161 23.9426 6.34077 23.9426C5.41327 23.9468 4.66744 23.1893 4.66744 22.2651ZM13.6999 26.2635C12.1658 27.8201 7.83661 27.8201 6.30161 26.2635C6.13244 26.1135 6.13244 25.8485 6.30161 25.6776C6.44911 25.5276 6.71077 25.5276 6.85827 25.6776C8.02994 26.8968 11.9166 26.9176 13.1391 25.6776C13.2866 25.5276 13.5483 25.5276 13.6958 25.6776C13.8683 25.8493 13.8683 26.1143 13.6999 26.2635ZM13.6658 23.946C12.7558 23.946 12.0141 23.1935 12.0141 22.2701C12.0141 21.3293 12.7558 20.5718 13.6658 20.5718C14.5933 20.5718 15.3391 21.3243 15.3391 22.2701C15.3349 23.1893 14.5933 23.946 13.6658 23.946Z" fill="#44A1E7"/>
</g>
<path d="M29.232 25V15.13H33.264C34.3 15.13 35.1027 15.3773 35.672 15.872C36.2413 16.3573 36.526 17.0387 36.526 17.916C36.526 18.4947 36.3953 18.9893 36.134 19.4C35.882 19.8013 35.5227 20.1093 35.056 20.324C34.5987 20.5387 34.062 20.646 33.446 20.646L33.698 20.464H33.978C34.3607 20.464 34.7013 20.5573 35 20.744C35.308 20.9307 35.5507 21.2433 35.728 21.682L37.128 25H35.854L34.51 21.738C34.3513 21.318 34.1133 21.0473 33.796 20.926C33.4787 20.7953 33.082 20.73 32.606 20.73H30.394V25H29.232ZM30.394 19.82H33.096C33.8427 19.82 34.4073 19.6613 34.79 19.344C35.182 19.0173 35.378 18.5507 35.378 17.944C35.378 17.3373 35.182 16.8753 34.79 16.558C34.4073 16.2407 33.8427 16.082 33.096 16.082H30.394V19.82ZM41.491 25.126C40.3896 25.126 39.5216 24.8087 38.887 24.174C38.2523 23.53 37.935 22.6387 37.935 21.5C37.935 20.7627 38.075 20.1233 38.355 19.582C38.635 19.0313 39.027 18.6067 39.531 18.308C40.035 18 40.6136 17.846 41.267 17.846C41.911 17.846 42.4523 17.9813 42.891 18.252C43.3296 18.5227 43.6656 18.91 43.899 19.414C44.1323 19.9087 44.249 20.4967 44.249 21.178V21.598H38.803V20.884H43.507L43.269 21.066C43.269 20.3193 43.101 19.736 42.765 19.316C42.429 18.896 41.9296 18.686 41.267 18.686C40.567 18.686 40.021 18.9333 39.629 19.428C39.237 19.9133 39.041 20.5713 39.041 21.402V21.528C39.041 22.4053 39.2556 23.0727 39.685 23.53C40.1236 23.978 40.735 24.202 41.519 24.202C41.939 24.202 42.331 24.1413 42.695 24.02C43.0683 23.8893 43.423 23.6793 43.759 23.39L44.151 24.188C43.843 24.4867 43.451 24.72 42.975 24.888C42.5083 25.0467 42.0136 25.126 41.491 25.126ZM48.3642 25.126C47.7482 25.126 47.2069 24.9813 46.7402 24.692C46.2735 24.3933 45.9095 23.9733 45.6482 23.432C45.3962 22.8907 45.2702 22.242 45.2702 21.486C45.2702 20.7207 45.3962 20.0673 45.6482 19.526C45.9095 18.9847 46.2735 18.5693 46.7402 18.28C47.2069 17.9907 47.7482 17.846 48.3642 17.846C48.9989 17.846 49.5449 18.0047 50.0022 18.322C50.4689 18.6393 50.7815 19.0687 50.9402 19.61H50.7722V14.696H51.9062V25H50.7862V23.32H50.9402C50.7909 23.88 50.4829 24.3233 50.0162 24.65C49.5495 24.9673 48.9989 25.126 48.3642 25.126ZM48.6022 24.202C49.2649 24.202 49.7969 23.9733 50.1982 23.516C50.5995 23.0493 50.8002 22.3727 50.8002 21.486C50.8002 20.59 50.5995 19.9133 50.1982 19.456C49.7969 18.9893 49.2649 18.756 48.6022 18.756C47.9395 18.756 47.4075 18.9893 47.0062 19.456C46.6142 19.9133 46.4182 20.59 46.4182 21.486C46.4182 22.3727 46.6142 23.0493 47.0062 23.516C47.4075 23.9733 47.9395 24.202 48.6022 24.202ZM56.4787 25.126C55.8627 25.126 55.3214 24.9813 54.8547 24.692C54.3881 24.3933 54.0241 23.9733 53.7627 23.432C53.5107 22.8907 53.3847 22.242 53.3847 21.486C53.3847 20.7207 53.5107 20.0673 53.7627 19.526C54.0241 18.9847 54.3881 18.5693 54.8547 18.28C55.3214 17.9907 55.8627 17.846 56.4787 17.846C57.1134 17.846 57.6594 18.0047 58.1167 18.322C58.5834 18.6393 58.8961 19.0687 59.0547 19.61H58.8867V14.696H60.0207V25H58.9007V23.32H59.0547C58.9054 23.88 58.5974 24.3233 58.1307 24.65C57.6641 24.9673 57.1134 25.126 56.4787 25.126ZM56.7167 24.202C57.3794 24.202 57.9114 23.9733 58.3127 23.516C58.7141 23.0493 58.9147 22.3727 58.9147 21.486C58.9147 20.59 58.7141 19.9133 58.3127 19.456C57.9114 18.9893 57.3794 18.756 56.7167 18.756C56.0541 18.756 55.5221 18.9893 55.1207 19.456C54.7287 19.9133 54.5327 20.59 54.5327 21.486C54.5327 22.3727 54.7287 23.0493 55.1207 23.516C55.5221 23.9733 56.0541 24.202 56.7167 24.202ZM61.9333 25V17.972H63.0673V25H61.9333ZM61.7933 16.376V15.102H63.1933V16.376H61.7933ZM67.4812 25.126C66.7905 25.126 66.2632 24.93 65.8992 24.538C65.5352 24.1367 65.3532 23.5347 65.3532 22.732V18.854H63.9812V17.972H65.3532V16.054L66.4872 15.732V17.972H68.5032V18.854H66.4872V22.606C66.4872 23.166 66.5805 23.5673 66.7672 23.81C66.9632 24.0433 67.2525 24.16 67.6352 24.16C67.8125 24.16 67.9712 24.146 68.1112 24.118C68.2512 24.0807 68.3772 24.0387 68.4892 23.992V24.944C68.3585 25 68.1999 25.042 68.0132 25.07C67.8359 25.1073 67.6585 25.126 67.4812 25.126Z" fill="#808FB0"/>
<defs>
<clipPath id="clip0_49_196">
<rect width="20" height="20" fill="white" transform="translate(0 10)"/>
</clipPath>
</defs>
</svg>
