<svg width="20" height="20" viewBox="0 0 20 20" fill="none" xmlns="http://www.w3.org/2000/svg">
<g clip-path="url(#clip0_49_156)">
<path d="M17.7708 7.75681C17.1391 7.75681 16.5833 8.02264 16.1741 8.43681C14.67 7.38014 12.6416 6.70014 10.3941 6.62764L11.5616 1.28931L15.2791 2.13598C15.2791 3.05931 16.0208 3.81348 16.9308 3.81348C17.8583 3.81348 18.6041 3.03931 18.6041 2.11514C18.6041 1.19098 17.8633 0.416809 16.9316 0.416809C16.2825 0.416809 15.7225 0.814309 15.4433 1.35764L11.3375 0.434309C11.1308 0.378476 10.9283 0.528476 10.8733 0.738476L9.59164 6.62348C7.36164 6.71764 5.35497 7.39681 3.8458 8.45431C3.43664 8.02264 2.85914 7.75681 2.22747 7.75681C-0.115865 7.75681 -0.883365 10.9476 1.26247 12.0385C1.18664 12.376 1.15247 12.736 1.15247 13.0951C1.15247 16.6793 5.13164 19.5835 10.0175 19.5835C14.9241 19.5835 18.9033 16.6793 18.9033 13.0951C18.9033 12.736 18.8658 12.3593 18.7733 12.021C20.8758 10.926 20.1016 7.75848 17.7708 7.75681ZM4.66747 12.2651C4.66747 11.3243 5.40914 10.5668 6.3408 10.5668C7.2508 10.5668 7.9933 11.3193 7.9933 12.2651C7.9933 13.1893 7.25164 13.9426 6.3408 13.9426C5.4133 13.9468 4.66747 13.1893 4.66747 12.2651ZM13.7 16.2635C12.1658 17.8201 7.83664 17.8201 6.30164 16.2635C6.13247 16.1135 6.13247 15.8485 6.30164 15.6776C6.44914 15.5276 6.7108 15.5276 6.8583 15.6776C8.02997 16.8968 11.9166 16.9176 13.1391 15.6776C13.2866 15.5276 13.5483 15.5276 13.6958 15.6776C13.8683 15.8493 13.8683 16.1143 13.7 16.2635ZM13.6658 13.946C12.7558 13.946 12.0141 13.1935 12.0141 12.2701C12.0141 11.3293 12.7558 10.5718 13.6658 10.5718C14.5933 10.5718 15.3391 11.3243 15.3391 12.2701C15.335 13.1893 14.5933 13.946 13.6658 13.946Z" fill="#44A1E7"/>
</g>
<defs>
<clipPath id="clip0_49_156">
<rect width="20" height="20" fill="white"/>
</clipPath>
</defs>
</svg>
