<svg width="35" height="35" viewBox="0 0 35 35" fill="none" xmlns="http://www.w3.org/2000/svg">
<path fill-rule="evenodd" clip-rule="evenodd" d="M29.129 17.583C29.129 11.1929 23.9429 6 17.5645 6C11.1828 6 6 11.1927 6 17.583C6 23.6104 10.5968 28.5777 16.471 29.129V29.1288C16.7985 29.1596 17.0889 28.919 17.1197 28.5914C17.1503 28.264 16.9098 27.9736 16.5821 27.9428C11.3083 27.448 7.18599 23.0076 7.18599 17.5829C7.18599 11.8324 11.8254 7.186 17.5644 7.186C23.3 7.186 27.9428 11.8324 27.9428 17.5829C27.9428 21.7621 25.4906 25.3593 21.9567 27.0161L23.2353 22.6332H23.2355C23.2798 22.482 23.2622 22.3194 23.1865 22.1813C23.111 22.0431 22.9836 21.9405 22.8324 21.8964C22.6812 21.8522 22.5186 21.8698 22.3804 21.9453C22.2423 22.021 22.1399 22.1484 22.0956 22.2996L20.474 27.8499C20.4515 27.9281 20.445 28.0102 20.4556 28.0909C20.4626 28.1484 20.4783 28.2046 20.5019 28.2576C20.5102 28.2766 20.5195 28.2952 20.5296 28.3132C20.5594 28.3649 20.5971 28.4117 20.6409 28.4522C20.6693 28.4799 20.7003 28.5047 20.7336 28.5263C20.7365 28.5294 20.7396 28.5325 20.7427 28.5356C20.7725 28.5505 20.8035 28.5629 20.8354 28.5726C20.8385 28.5757 20.8416 28.5788 20.8447 28.5817C20.8866 28.596 20.9303 28.6053 20.9743 28.6096L26.5617 29.9809L26.5619 29.9811C26.738 30.0266 26.9251 29.9888 27.0697 29.8785C27.2143 29.7681 27.3003 29.5977 27.3032 29.4158C27.3109 29.1356 27.1216 28.8884 26.849 28.8228L22.9201 27.8685C26.6132 25.9321 29.1286 22.0444 29.1286 17.5828L29.129 17.583Z" fill="#44A1E7"/>
</svg>
