<svg width="24" height="24" viewBox="0 0 24 24" fill="none" xmlns="http://www.w3.org/2000/svg">
<path d="M5.36184 6.95868C5.39318 6.91689 5.42451 6.87511 5.45585 6.83541C5.41198 6.89182 5.3681 6.94823 5.32423 7.00464C5.80686 6.38204 6.36467 5.82212 6.98521 5.33949C6.9288 5.38337 6.87239 5.42724 6.81598 5.47112C7.44275 4.98849 8.13011 4.58525 8.85927 4.27607C8.79241 4.30323 8.72556 4.33248 8.6587 4.35964C9.40665 4.04625 10.1922 3.83315 10.9966 3.7245C10.9235 3.73495 10.8482 3.74539 10.7751 3.75375C11.5837 3.6472 12.4027 3.6472 13.2112 3.75375C13.1381 3.7433 13.0629 3.73286 12.9897 3.7245C13.792 3.83314 14.5776 4.04625 15.3235 4.35964C15.2566 4.33248 15.1897 4.30323 15.1229 4.27607C15.852 4.58319 16.5373 4.98433 17.1641 5.46695C17.1077 5.42308 17.0513 5.3792 16.9949 5.33533C17.6154 5.81586 18.1753 6.37577 18.6559 6.99631C18.612 6.9399 18.5681 6.88349 18.5242 6.82708C19.0069 7.45385 19.408 8.13915 19.7151 8.86831C19.688 8.80145 19.6587 8.7346 19.6316 8.66774C19.9449 9.41359 20.158 10.1992 20.2667 11.0015C20.2563 10.9283 20.2458 10.8531 20.2374 10.78C20.2897 11.1853 20.3168 11.5906 20.3189 12.0001C20.3189 12.4368 20.7033 12.8567 21.1546 12.8358C21.6059 12.8149 21.9903 12.4681 21.9903 12.0001C21.9883 10.3997 21.5996 8.82029 20.8684 7.39735C20.1602 6.01843 19.1176 4.84638 17.8787 3.92292C16.6815 3.03078 15.2462 2.41654 13.7752 2.16375C12.0578 1.86916 10.2694 1.98616 8.62725 2.58578C6.99764 3.18123 5.51426 4.17781 4.39428 5.50657C4.22923 5.70296 4.07044 5.90771 3.91586 6.11455C3.79468 6.27751 3.78005 6.57211 3.83229 6.75805C3.88661 6.95235 4.03494 7.16129 4.21669 7.25738C4.41099 7.35975 4.64499 7.41198 4.86019 7.34095C4.92705 7.31379 4.99391 7.28453 5.06076 7.25738C5.18821 7.18425 5.2864 7.08396 5.36162 6.95861L5.36184 6.95868Z" fill="#44A1E7"/>
<path d="M8.19239 5.84087H6.89912H4.83283H4.35231C4.63018 6.11874 4.91016 6.39872 5.18801 6.67657V5.3833V3.31701V2.83649C5.18801 2.39982 4.80361 1.97988 4.35231 2.00078C3.89894 2.02167 3.5166 2.36849 3.5166 2.83649V4.12976V6.19605V6.67657C3.5166 7.12783 3.89894 7.51228 4.35231 7.51228H5.64558H7.71187H8.19239C8.62906 7.51228 9.049 7.12787 9.0281 6.67657C9.00721 6.22321 8.66039 5.84087 8.19239 5.84087Z" fill="#44A1E7"/>
<path d="M18.6285 17.0413C18.5971 17.0831 18.5658 17.1249 18.5345 17.1646C18.5783 17.1082 18.6222 17.0518 18.6661 16.9954C18.1856 17.618 17.6256 18.1779 17.0051 18.6605C17.0615 18.6166 17.1179 18.5727 17.1743 18.5289C16.5476 19.0115 15.8602 19.4147 15.1311 19.7239C15.1979 19.6968 15.2648 19.6675 15.3316 19.6403C14.5837 19.9537 13.7981 20.1668 12.9937 20.2755C13.0669 20.265 13.1421 20.2546 13.2152 20.2462C12.4067 20.3528 11.5877 20.3528 10.7791 20.2462C10.8522 20.2567 10.9275 20.2671 11.0006 20.2755C10.1983 20.1668 9.41276 19.9537 8.66687 19.6403C8.73373 19.6675 8.80058 19.6968 8.86744 19.7239C8.13829 19.4168 7.45303 19.0157 6.82622 18.533C6.88263 18.5769 6.93904 18.6208 6.99545 18.6647C6.37494 18.1841 5.81503 17.6242 5.33447 17.0037C5.37834 17.0601 5.42222 17.1165 5.46609 17.1729C4.98346 16.5461 4.58233 15.8608 4.27521 15.1317C4.30237 15.1986 4.33162 15.2654 4.35878 15.3323C4.04539 14.5864 3.83229 13.8008 3.72364 12.9986C3.73409 13.0717 3.74453 13.1469 3.75289 13.22C3.70066 12.8147 3.6735 12.4094 3.67141 11.9999C3.67141 11.5632 3.287 11.1433 2.83571 11.1642C2.38441 11.1851 2 11.5319 2 11.9999C2.00209 13.6003 2.39071 15.1797 3.12193 16.6026C3.83018 17.9816 4.87272 19.1536 6.11167 20.0771C7.30882 20.9692 8.74413 21.5834 10.2151 21.8362C11.9325 22.1308 13.7209 22.0138 15.3631 21.4142C16.9927 20.8188 18.4761 19.8222 19.596 18.4934C19.7611 18.297 19.9199 18.0923 20.0745 17.8854C20.1956 17.7225 20.2103 17.4279 20.158 17.2419C20.1037 17.0476 19.9554 16.8387 19.7736 16.7426C19.5793 16.6402 19.3453 16.588 19.1301 16.6591C19.0633 16.6862 18.9964 16.7155 18.9296 16.7426C18.8021 16.8157 18.7039 16.916 18.6287 17.0414L18.6285 17.0413Z" fill="#44A1E7"/>
<path d="M15.7974 18.1591H17.0907H19.157H19.6375C19.3596 17.8812 19.0796 17.6013 18.8018 17.3234V18.6167V20.683V21.1635C18.8018 21.6002 19.1862 22.0201 19.6375 21.9992C20.0908 21.9783 20.4732 21.6315 20.4732 21.1635V19.8702V17.8039V17.3234C20.4732 16.8721 20.0908 16.4877 19.6375 16.4877H18.3442H16.2779H15.7974C15.3607 16.4877 14.9408 16.8721 14.9617 17.3234C14.9826 17.7768 15.3294 18.1591 15.7974 18.1591Z" fill="#44A1E7"/>
</svg>
