<svg width="35" height="35" viewBox="0 0 35 35" fill="none" xmlns="http://www.w3.org/2000/svg">
<path d="M6.19727 13.9076L24.6424 13.9076L24.6424 15.989L6.19727 15.989L6.19727 13.9076ZM29.8421 19.1073L29.8421 20.633L27.7608 20.633L27.7608 19.1073L29.8421 19.1073ZM24.6424 25.8327L10.2077 25.8327L10.2077 23.7513L24.6424 23.7513L24.6424 25.8327ZM29.8421 20.633C29.8421 23.5047 27.5141 25.8327 24.6424 25.8327L24.6424 23.7513C26.3646 23.7513 27.7608 22.3552 27.7608 20.633L29.8421 20.633ZM24.6424 13.9076C27.5141 13.9076 29.8421 16.2356 29.8421 19.1073L27.7608 19.1073C27.7608 17.3851 26.3646 15.989 24.6424 15.989L24.6424 13.9076Z" fill="#44A1E7"/>
<path d="M9.84375 10.5732C8.13521 12.2818 7.17729 13.2397 5.46875 14.9482L9.84375 19.3232" stroke="#44A1E7" stroke-width="2.08134" stroke-linejoin="round"/>
</svg>
