<svg width="24" height="24" viewBox="0 0 24 24" fill="none" xmlns="http://www.w3.org/2000/svg">
<path d="M20.3292 3.67089C18.1074 1.52478 15.1311 0.337269 12.0425 0.36408C8.95346 0.390904 5.99869 1.62991 3.81441 3.81428C1.63014 5.99866 0.391025 8.95384 0.364214 12.0424C0.337391 15.1315 1.52492 18.1075 3.67102 20.3291C5.89286 22.4752 8.86914 23.6627 11.9577 23.6359C15.0468 23.6091 18.0016 22.3701 20.1859 20.1857C22.3701 18.0014 23.6092 15.0462 23.6361 11.9576C23.6629 8.86851 22.4753 5.89252 20.3292 3.67089ZM17.0187 15.3461V15.3459C17.2418 15.5672 17.3672 15.8684 17.3672 16.1823C17.3672 16.4965 17.2418 16.7977 17.0187 17.0188C16.7964 17.2395 16.4955 17.3624 16.1823 17.3606C15.8693 17.3624 15.5683 17.2395 15.3458 17.0188L11.9999 13.6611L8.65405 17.0188C8.43157 17.2395 8.1306 17.3624 7.8176 17.3606C7.5044 17.3624 7.20342 17.2395 6.98115 17.0188C6.75808 16.7977 6.63265 16.4965 6.63265 16.1823C6.63265 15.8683 6.75809 15.5671 6.98115 15.3459L10.3389 12L6.98115 8.65412C6.68215 8.35531 6.56558 7.91962 6.67485 7.51134C6.78432 7.10327 7.10324 6.78436 7.5113 6.6749C7.91957 6.56563 8.35527 6.68219 8.65408 6.9812L12 10.3389L15.3458 6.9812C15.6447 6.68219 16.0803 6.56563 16.4886 6.6749C16.8967 6.78436 17.2156 7.10329 17.3251 7.51134C17.4343 7.91961 17.3178 8.35531 17.0188 8.65412L13.6611 12L17.0187 15.3461Z" fill="#808FB0"/>
</svg>
