<svg width="22" height="23" viewBox="0 0 22 23" fill="none" xmlns="http://www.w3.org/2000/svg">
<path d="M21.7008 19.0237L17.4165 14.7394C17.2231 14.546 16.961 14.4386 16.686 14.4386H15.9855C17.1716 12.9216 17.8763 11.0137 17.8763 8.93815C17.8763 4.00068 13.8756 0 8.93815 0C4.00068 0 0 4.00068 0 8.93815C0 13.8756 4.00068 17.8763 8.93815 17.8763C11.0137 17.8763 12.9216 17.1716 14.4386 15.9855V16.686C14.4386 16.961 14.546 17.2231 14.7394 17.4165L19.0237 21.7008C19.4276 22.1047 20.0808 22.1047 20.4804 21.7008L21.6965 20.4847C22.1004 20.0808 22.1004 19.4276 21.7008 19.0237ZM8.93815 14.4386C5.90004 14.4386 3.43775 11.9806 3.43775 8.93815C3.43775 5.90004 5.89574 3.43775 8.93815 3.43775C11.9763 3.43775 14.4386 5.89574 14.4386 8.93815C14.4386 11.9763 11.9806 14.4386 8.93815 14.4386Z" fill="#001F60"/>
</svg>
