<svg width="200" height="174" viewBox="0 0 200 174" fill="none" xmlns="http://www.w3.org/2000/svg">
<path fill-rule="evenodd" clip-rule="evenodd" d="M159.431 84.9059C169.155 84.7285 178.747 89.8258 184.102 99.1096C191.902 112.648 187.519 129.526 174.446 137.094C161.375 144.648 144.564 140.038 136.787 126.511C128.987 112.972 133.404 96.095 146.475 88.5271C150.55 86.1695 154.998 84.9898 159.43 84.906L159.431 84.9059ZM159.138 73.2117C152.814 73.3228 146.44 74.9764 140.614 78.3559C121.931 89.1646 115.718 113.479 126.62 132.389C136.796 150.072 158.526 157.127 176.565 149.149L189.039 170.792C190.654 173.61 194.248 174.581 197.062 172.963C199.879 171.326 200.829 167.734 199.214 164.924L186.483 142.809C200.199 130.674 203.855 109.884 194.277 93.2384C186.791 80.2298 173.053 72.9644 159.14 73.21L159.138 73.2117Z" fill="#808FB0"/>
<path fill-rule="evenodd" clip-rule="evenodd" d="M24.1528 0.00204521C11.0817 0.00204521 0 9.83977 0 22.4251V130.023C0 142.608 11.0817 152.446 24.1528 152.446H122.156C128.417 152.446 128.417 143.043 122.156 143.043L24.1528 143.045C15.6564 143.045 9.38345 137.078 9.38345 130.024V35.4312H156.942V63.0629C156.942 69.3223 166.337 69.3223 166.337 63.0629L166.339 22.423C166.339 9.83772 155.243 0 142.17 0L24.1528 0.00204521Z" fill="#808FB0"/>
<path d="M67.3485 65.5718C62.0719 65.5718 59.4706 71.995 63.273 75.6691L74.8873 87.2989L63.273 98.9308C60.9739 101.23 60.9583 104.947 63.2574 107.245C65.5525 109.541 69.2732 109.541 71.57 107.245L83.1704 95.6136L94.7708 107.245C97.0699 109.541 100.787 109.541 103.085 107.245C105.385 104.946 105.385 101.23 103.101 98.9308L91.4847 87.2989L103.101 75.6691C106.966 71.929 104.181 65.3791 98.815 65.5718C97.2745 65.6205 95.8354 66.2679 94.7668 67.3697L83.1664 78.9861L71.566 67.3697C70.4721 66.2172 68.9355 65.5718 67.3482 65.5718H67.3485Z" fill="#808FB0"/>
</svg>
