<svg width="63" height="40" viewBox="0 0 63 40" fill="none" xmlns="http://www.w3.org/2000/svg">
<g clip-path="url(#clip0_49_180)">
<path fill-rule="evenodd" clip-rule="evenodd" d="M7.31823 10C6.21486 10.0008 5.3219 10.8962 5.32272 11.9996C5.3219 13.103 6.21568 13.9984 7.31904 13.9992H9.31536V12.0004C9.31618 10.897 8.4224 10.0016 7.31823 10C7.31904 10 7.31904 10 7.31823 10V10ZM7.31823 15.3333H1.99633C0.892966 15.3341 -0.000813263 16.2296 2.22864e-06 17.3329C-0.00162875 18.4363 0.89215 19.3317 1.99551 19.3333H7.31823C8.42159 19.3325 9.31536 18.4371 9.31455 17.3337C9.31536 16.2296 8.42159 15.3341 7.31823 15.3333Z" fill="#44A1E7"/>
<path fill-rule="evenodd" clip-rule="evenodd" d="M19.9601 17.3329C19.961 16.2296 19.0672 15.3341 17.9638 15.3333C16.8604 15.3341 15.9666 16.2296 15.9674 17.3329V19.3333H17.9638C19.0672 19.3325 19.961 18.4371 19.9601 17.3329ZM14.6373 17.3329V11.9996C14.6382 10.897 13.7452 10.0016 12.6418 10C11.5384 10.0008 10.6446 10.8962 10.6454 11.9996V17.3329C10.6438 18.4363 11.5376 19.3317 12.641 19.3333C13.7444 19.3325 14.6382 18.4371 14.6373 17.3329Z" fill="#44A1E7"/>
<path fill-rule="evenodd" clip-rule="evenodd" d="M12.6409 30C13.7443 29.9992 14.6381 29.1038 14.6373 28.0004C14.6381 26.897 13.7443 26.0016 12.6409 26.0008H10.6446V28.0004C10.6438 29.1029 11.5376 29.9984 12.6409 30ZM12.6409 24.6658H17.9637C19.067 24.665 19.9608 23.7696 19.96 22.6662C19.9616 21.5629 19.0678 20.6675 17.9645 20.6658H12.6417C11.5384 20.6666 10.6446 21.5621 10.6454 22.6654C10.6446 23.7696 11.5376 24.665 12.6409 24.6658Z" fill="#44A1E7"/>
<path fill-rule="evenodd" clip-rule="evenodd" d="M5.57608e-07 22.6662C-0.000814942 23.7696 0.892972 24.665 1.99634 24.6658C3.09971 24.665 3.9935 23.7696 3.99268 22.6662V20.6666H1.99634C0.892972 20.6674 -0.000814942 21.5628 5.57608e-07 22.6662ZM5.32276 22.6662V27.9996C5.32113 29.103 6.21492 29.9984 7.31829 30C8.42166 29.9992 9.31545 29.1038 9.31463 28.0004V22.6678C9.31626 21.5644 8.42247 20.669 7.31911 20.6674C6.21492 20.6674 5.32195 21.5628 5.32276 22.6662C5.32276 22.6662 5.32276 22.667 5.32276 22.6662Z" fill="#44A1E7"/>
</g>
<path d="M33.2171 25.126C32.4237 25.126 31.7144 25.0233 31.0891 24.818C30.4637 24.6127 29.9177 24.3187 29.4511 23.936L29.8711 23.012C30.1977 23.2547 30.5244 23.46 30.8511 23.628C31.1871 23.7867 31.5464 23.908 31.9291 23.992C32.3117 24.0667 32.7411 24.104 33.2171 24.104C34.0477 24.104 34.6637 23.95 35.0651 23.642C35.4664 23.334 35.6671 22.9233 35.6671 22.41C35.6671 21.9713 35.5271 21.6353 35.2471 21.402C34.9671 21.1687 34.4771 20.982 33.7771 20.842L32.3071 20.548C31.4017 20.3613 30.7251 20.058 30.2771 19.638C29.8384 19.218 29.6191 18.6487 29.6191 17.93C29.6191 17.342 29.7684 16.8287 30.0671 16.39C30.3751 15.9513 30.8044 15.6107 31.3551 15.368C31.9057 15.1253 32.5451 15.004 33.2731 15.004C33.9731 15.004 34.6124 15.1113 35.1911 15.326C35.7697 15.5313 36.2644 15.8347 36.6751 16.236L36.2691 17.132C35.8304 16.74 35.3684 16.46 34.8831 16.292C34.4071 16.1147 33.8657 16.026 33.2591 16.026C32.4937 16.026 31.8871 16.194 31.4391 16.53C31.0004 16.8567 30.7811 17.3047 30.7811 17.874C30.7811 18.3313 30.9211 18.6907 31.2011 18.952C31.4811 19.204 31.9431 19.3953 32.5871 19.526L34.0711 19.82C35.0231 20.016 35.7231 20.31 36.1711 20.702C36.6191 21.094 36.8431 21.6447 36.8431 22.354C36.8431 22.8953 36.6937 23.376 36.3951 23.796C36.1057 24.216 35.6904 24.5427 35.1491 24.776C34.6077 25.0093 33.9637 25.126 33.2171 25.126ZM38.3137 25V14.696H39.4477V25H38.3137ZM44.0437 25.126C43.4183 25.126 42.8723 24.9813 42.4057 24.692C41.939 24.3933 41.575 23.9733 41.3137 23.432C41.0617 22.8907 40.9357 22.242 40.9357 21.486C40.9357 20.7207 41.0617 20.0673 41.3137 19.526C41.575 18.9847 41.939 18.5693 42.4057 18.28C42.8723 17.9907 43.4183 17.846 44.0437 17.846C44.6783 17.846 45.2243 18.0093 45.6817 18.336C46.1483 18.6533 46.4563 19.0873 46.6057 19.638H46.4377L46.5917 17.972H47.6837C47.6557 18.2427 47.6277 18.518 47.5997 18.798C47.581 19.0687 47.5717 19.3347 47.5717 19.596V25H46.4377V23.348H46.5917C46.4423 23.8987 46.1343 24.3327 45.6677 24.65C45.201 24.9673 44.6597 25.126 44.0437 25.126ZM44.2677 24.202C44.9397 24.202 45.4717 23.9733 45.8637 23.516C46.2557 23.0493 46.4517 22.3727 46.4517 21.486C46.4517 20.59 46.2557 19.9133 45.8637 19.456C45.4717 18.9893 44.9397 18.756 44.2677 18.756C43.605 18.756 43.073 18.9893 42.6717 19.456C42.2797 19.9133 42.0837 20.59 42.0837 21.486C42.0837 22.3727 42.2797 23.0493 42.6717 23.516C43.073 23.9733 43.605 24.202 44.2677 24.202ZM52.4382 25.126C51.7475 25.126 51.1455 24.9767 50.6322 24.678C50.1282 24.3793 49.7362 23.9547 49.4562 23.404C49.1855 22.8533 49.0502 22.2 49.0502 21.444C49.0502 20.6787 49.1902 20.03 49.4702 19.498C49.7502 18.9567 50.1422 18.546 50.6462 18.266C51.1595 17.986 51.7569 17.846 52.4382 17.846C52.8862 17.846 53.3202 17.9253 53.7402 18.084C54.1695 18.2427 54.5242 18.4667 54.8042 18.756L54.3982 19.568C54.1182 19.2973 53.8102 19.0967 53.4742 18.966C53.1475 18.8353 52.8255 18.77 52.5082 18.77C51.7802 18.77 51.2155 18.9987 50.8142 19.456C50.4129 19.9133 50.2122 20.5807 50.2122 21.458C50.2122 22.326 50.4129 22.998 50.8142 23.474C51.2155 23.95 51.7802 24.188 52.5082 24.188C52.8162 24.188 53.1335 24.1273 53.4602 24.006C53.7962 23.8847 54.1089 23.684 54.3982 23.404L54.8042 24.202C54.5149 24.5007 54.1555 24.7293 53.7262 24.888C53.2969 25.0467 52.8675 25.126 52.4382 25.126ZM56.1358 25V14.696H57.2698V21.094H57.2978L60.5598 17.972H61.9878L58.1378 21.64L58.1658 21.066L62.3518 25H60.8818L57.2978 21.696H57.2698V25H56.1358Z" fill="#808FB0"/>
<defs>
<clipPath id="clip0_49_180">
<rect width="20" height="20" fill="white" transform="translate(0 10)"/>
</clipPath>
</defs>
</svg>
