<svg width="236" height="175" viewBox="0 0 236 175" fill="none" xmlns="http://www.w3.org/2000/svg">
    <path d="M60.0771 -4.35832e-06C78.373 -2.8161e-06 87.6493 11.4556 95.3782 20.6204C103.109 30.0393 108.262 35.64 118.568 35.64C128.874 35.64 134.286 30.0393 141.758 20.6204C149.23 11.4556 158.765 3.96044e-06 177.059 5.50251e-06C195.355 7.04474e-06 204.631 11.4556 212.36 20.6204C220.091 30.0393 225.244 35.64 235.55 35.64L235.55 84.1411C217.254 84.1411 207.978 72.6856 200.249 63.5208C192.518 54.1018 187.365 48.5011 177.059 48.5011C166.753 48.5011 161.341 54.1018 153.869 63.5207C146.397 72.6855 136.862 84.1411 118.568 84.1411C100.272 84.1411 90.9958 72.6855 83.267 63.5207C75.5362 54.1018 70.3832 48.5011 60.0771 48.5011C49.771 48.5011 44.3589 54.1018 36.8872 63.5207C29.4155 72.6855 19.8801 84.1411 1.58611 84.1411L1.58611 35.64C11.8922 35.64 17.3043 30.0393 24.776 20.6203C32.2477 11.4555 41.783 -5.9004e-06 60.0771 -4.35832e-06Z" fill="#001F60"/>
    <path d="M58.491 89.8686C76.7869 89.8686 86.0632 101.324 93.7921 110.489C101.523 119.908 106.676 125.509 116.982 125.509C127.288 125.509 132.7 119.908 140.172 110.489C147.644 101.324 157.179 89.8687 175.473 89.8687C193.769 89.8687 203.045 101.324 210.774 110.489C218.505 119.908 223.658 125.509 233.964 125.509L233.964 174.01C215.668 174.01 206.392 162.554 198.663 153.389C190.932 143.97 185.779 138.37 175.473 138.37C165.167 138.37 159.755 143.97 152.283 153.389C144.811 162.554 135.276 174.01 116.982 174.01C98.6861 174.01 89.4098 162.554 81.6809 153.389C73.9502 143.97 68.7971 138.37 58.491 138.37C48.1849 138.37 42.7728 143.97 35.3011 153.389C27.8295 162.554 18.2941 174.01 4.57764e-05 174.01L4.98647e-05 125.509C10.3062 125.509 15.7183 119.908 23.1899 110.489C30.6616 101.324 40.197 89.8686 58.491 89.8686Z" fill="#001F60"/>
</svg>
