<svg width="22" height="20" viewBox="0 0 22 20" fill="none" xmlns="http://www.w3.org/2000/svg">
<path d="M11.9511 1.92699C11.6521 1.00599 10.3491 1.00599 10.0491 1.92699L8.5301 6.60099C8.46467 6.80164 8.33744 6.97644 8.16662 7.10038C7.9958 7.22432 7.79014 7.29104 7.5791 7.29099H2.6651C1.6971 7.29099 1.2931 8.53099 2.0771 9.10099L6.0531 11.989C6.22389 12.1131 6.351 12.2882 6.4162 12.489C6.48141 12.6899 6.48137 12.9062 6.4161 13.107L4.8981 17.781C4.5981 18.702 5.6531 19.469 6.4361 18.899L10.4121 16.011C10.583 15.8868 10.7888 15.8198 11.0001 15.8198C11.2114 15.8198 11.4172 15.8868 11.5881 16.011L15.5641 18.899C16.3471 19.469 17.4021 18.703 17.1021 17.781L15.5841 13.107C15.5188 12.9062 15.5188 12.6899 15.584 12.489C15.6492 12.2882 15.7763 12.1131 15.9471 11.989L19.9231 9.10099C20.7061 8.53099 20.3041 7.29099 19.3351 7.29099H14.4201C14.2092 7.29083 14.0038 7.22402 13.8332 7.10009C13.6625 6.97617 13.5355 6.80148 13.4701 6.60099L11.9511 1.92699Z" stroke="#808FB0" stroke-width="1.6" stroke-linecap="round" stroke-linejoin="round"/>
</svg>
