<svg width="24" height="20" viewBox="0 0 24 20" fill="none" xmlns="http://www.w3.org/2000/svg">
<path d="M11.9999 0C5.27111 0 0 2.29389 0 5.22244V15.6912C0 17.3263 1.65552 18.8267 4.54249 19.8072C4.5831 19.8207 4.62526 19.8278 4.66708 19.8278C4.74675 19.8278 4.82572 19.8034 4.89277 19.755C4.99421 19.6823 5.05417 19.5653 5.05417 19.4407L5.05435 12.2275C5.61251 12.0502 6.21182 11.8931 6.84533 11.7591V13.6943C6.84533 13.8325 6.91895 13.9606 7.03888 14.0295L11.8065 16.7817C11.8665 16.8161 11.933 16.8335 12.0001 16.8335C12.0671 16.8335 12.1337 16.8161 12.1936 16.7817L16.9613 14.0295C17.0812 13.9602 17.1548 13.8325 17.1548 13.6943V11.7615C17.7885 11.8955 18.3882 12.0518 18.9458 12.2295V19.44C18.9458 19.5646 19.0058 19.682 19.1072 19.7544C19.1738 19.8024 19.2527 19.8271 19.3329 19.8271C19.3747 19.8271 19.4169 19.8202 19.4575 19.8066C22.3447 18.8262 24 17.3259 24 15.6911V5.22235C24 2.29376 18.7289 0.000353888 12.0001 0.000353888L11.9999 0ZM11.9999 10.4936L8.0066 8.18811L11.9999 5.88285L15.9932 8.18829L11.9999 10.4936ZM16.3803 13.4698L12.387 15.7755V11.1644L16.3799 8.85878V13.4698H16.3803ZM17.1545 10.9615V8.18842C17.1545 8.05017 17.0809 7.92212 16.9609 7.85317L12.1933 5.10047C12.0733 5.03152 11.9261 5.03152 11.8062 5.10047L7.03851 7.85264C6.91858 7.92194 6.84496 8.04964 6.84496 8.18789V10.9603C6.21592 11.0876 5.61524 11.2356 5.05398 11.4061V8.97053C5.05398 8.80446 4.94822 8.65705 4.79148 8.60399C2.27573 7.75013 0.773851 6.48586 0.773851 5.22195C0.773851 2.81073 5.91445 0.774134 11.9996 0.774134C18.0847 0.774134 23.2253 2.8114 23.2253 5.22239C23.2253 6.48631 21.7234 7.75044 19.2079 8.60479C19.0512 8.65819 18.9454 8.80577 18.9454 8.97132V11.4097C18.3831 11.2389 17.7838 11.0891 17.1541 10.9617L17.1545 10.9615Z" fill="#44A1E7"/>
</svg>
