<svg width="20" height="22" viewBox="0 0 20 22" fill="none" xmlns="http://www.w3.org/2000/svg">
<path d="M2.26395 22.0001H14.4998C15.409 22.0001 16.1466 21.2624 16.1466 20.3533V4.88212C16.1466 3.973 15.409 3.23535 14.4998 3.23535H2.26395C1.35483 3.23535 0.617188 3.973 0.617188 4.88212V20.3533C0.617188 21.2624 1.35483 22.0001 2.26395 22.0001ZM1.91131 4.88212C1.91131 4.688 2.06983 4.52947 2.26395 4.52947H14.4998C14.694 4.52947 14.8525 4.688 14.8525 4.88212V20.3533C14.8525 20.5474 14.694 20.7059 14.4998 20.7059H2.26395C2.06983 20.7059 1.91131 20.5474 1.91131 20.3533V4.88212Z" fill="white"/>
<path d="M17.7362 -6.10352e-05H5.50028C4.59116 -6.10352e-05 3.85352 0.737586 3.85352 1.6467C3.85352 2.00259 4.14469 2.29376 4.50057 2.29376C4.85646 2.29376 5.14763 2.00259 5.14763 1.6467C5.14763 1.45259 5.30616 1.29406 5.50028 1.29406H17.7362C17.9303 1.29406 18.0888 1.45259 18.0888 1.6467V17.1179C18.0888 17.312 17.9303 17.4705 17.7362 17.4705C17.3803 17.4705 17.0891 17.7617 17.0891 18.1176C17.0891 18.4735 17.3803 18.7646 17.7362 18.7646C18.6453 18.7646 19.3829 18.027 19.3829 17.1179V1.6467C19.3829 0.737586 18.6453 -6.10352e-05 17.7362 -6.10352e-05Z" fill="white"/>
</svg>
