<svg width="20" height="20" viewBox="0 0 20 20" fill="none" xmlns="http://www.w3.org/2000/svg">
<path d="M19.1666 2.50002C18.3686 3.06292 17.4851 3.49344 16.55 3.77502C16.0481 3.19794 15.3811 2.78893 14.6392 2.60329C13.8973 2.41765 13.1162 2.46435 12.4017 2.73706C11.6872 3.00978 11.0737 3.49535 10.6441 4.12812C10.2146 4.76088 9.98973 5.5103 9.99998 6.27502V7.10835C8.53551 7.14632 7.08437 6.82153 5.77582 6.16289C4.46727 5.50425 3.34191 4.53221 2.49998 3.33335C2.49998 3.33335 -0.833354 10.8334 6.66665 14.1667C4.95042 15.3317 2.90594 15.9158 0.833313 15.8334C8.33331 20 17.5 15.8334 17.5 6.25002C17.4992 6.0179 17.4769 5.78635 17.4333 5.55835C18.2838 4.7196 18.884 3.66061 19.1666 2.50002Z" fill="#44A1E7"/>
</svg>
