<svg width="76" height="40" viewBox="0 0 76 40" fill="none" xmlns="http://www.w3.org/2000/svg">
<path d="M19.1666 12.5C18.3686 13.0629 17.4851 13.4934 16.55 13.775C16.0481 13.1979 15.3811 12.7889 14.6392 12.6033C13.8973 12.4177 13.1162 12.4643 12.4017 12.7371C11.6872 13.0098 11.0737 13.4954 10.6441 14.1281C10.2146 14.7609 9.98973 15.5103 9.99998 16.275V17.1084C8.53551 17.1463 7.08437 16.8215 5.77582 16.1629C4.46727 15.5043 3.34191 14.5322 2.49998 13.3334C2.49998 13.3334 -0.833354 20.8334 6.66665 24.1667C4.95042 25.3317 2.90594 25.9158 0.833313 25.8334C8.33331 30 17.5 25.8334 17.5 16.25C17.4992 16.0179 17.4769 15.7863 17.4333 15.5584C18.2838 14.7196 18.884 13.6606 19.1666 12.5Z" fill="#44A1E7"/>
<path d="M31.626 25V16.11H28.14V15.13H36.26V16.11H32.788V25H31.626ZM38.2215 25L35.6175 17.972H36.8215L38.9915 24.16H38.6275L40.8675 17.972H41.8475L44.0455 24.16H43.6955L45.8795 17.972H47.0275L44.4095 25H43.3175L41.0495 18.714H41.6095L39.3275 25H38.2215ZM48.2335 25V17.972H49.3675V25H48.2335ZM48.0935 16.376V15.102H49.4935V16.376H48.0935ZM53.7814 25.126C53.0908 25.126 52.5634 24.93 52.1994 24.538C51.8354 24.1367 51.6534 23.5347 51.6534 22.732V18.854H50.2814V17.972H51.6534V16.054L52.7874 15.732V17.972H54.8034V18.854H52.7874V22.606C52.7874 23.166 52.8808 23.5673 53.0674 23.81C53.2634 24.0433 53.5528 24.16 53.9354 24.16C54.1128 24.16 54.2714 24.146 54.4114 24.118C54.5514 24.0807 54.6774 24.0387 54.7894 23.992V24.944C54.6588 25 54.5001 25.042 54.3134 25.07C54.1361 25.1073 53.9588 25.126 53.7814 25.126ZM58.2182 25.126C57.5276 25.126 57.0002 24.93 56.6362 24.538C56.2722 24.1367 56.0902 23.5347 56.0902 22.732V18.854H54.7182V17.972H56.0902V16.054L57.2242 15.732V17.972H59.2402V18.854H57.2242V22.606C57.2242 23.166 57.3176 23.5673 57.5042 23.81C57.7002 24.0433 57.9896 24.16 58.3722 24.16C58.5496 24.16 58.7082 24.146 58.8482 24.118C58.9882 24.0807 59.1142 24.0387 59.2262 23.992V24.944C59.0956 25 58.9369 25.042 58.7502 25.07C58.5729 25.1073 58.3956 25.126 58.2182 25.126ZM63.3944 25.126C62.2931 25.126 61.4251 24.8087 60.7904 24.174C60.1557 23.53 59.8384 22.6387 59.8384 21.5C59.8384 20.7627 59.9784 20.1233 60.2584 19.582C60.5384 19.0313 60.9304 18.6067 61.4344 18.308C61.9384 18 62.5171 17.846 63.1704 17.846C63.8144 17.846 64.3557 17.9813 64.7944 18.252C65.2331 18.5227 65.5691 18.91 65.8024 19.414C66.0357 19.9087 66.1524 20.4967 66.1524 21.178V21.598H60.7064V20.884H65.4104L65.1724 21.066C65.1724 20.3193 65.0044 19.736 64.6684 19.316C64.3324 18.896 63.8331 18.686 63.1704 18.686C62.4704 18.686 61.9244 18.9333 61.5324 19.428C61.1404 19.9133 60.9444 20.5713 60.9444 21.402V21.528C60.9444 22.4053 61.1591 23.0727 61.5884 23.53C62.0271 23.978 62.6384 24.202 63.4224 24.202C63.8424 24.202 64.2344 24.1413 64.5984 24.02C64.9717 23.8893 65.3264 23.6793 65.6624 23.39L66.0544 24.188C65.7464 24.4867 65.3544 24.72 64.8784 24.888C64.4117 25.0467 63.9171 25.126 63.3944 25.126ZM67.5796 25V19.666C67.5796 19.386 67.5703 19.1013 67.5516 18.812C67.5423 18.5227 67.5236 18.2427 67.4956 17.972H68.5876L68.7276 19.68L68.5316 19.694C68.625 19.274 68.7883 18.9287 69.0216 18.658C69.255 18.3873 69.5303 18.1867 69.8476 18.056C70.165 17.916 70.4963 17.846 70.8416 17.846C70.9816 17.846 71.103 17.8507 71.2056 17.86C71.3176 17.8693 71.4203 17.8927 71.5136 17.93L71.4996 18.938C71.3596 18.8913 71.229 18.8633 71.1076 18.854C70.9956 18.8353 70.865 18.826 70.7156 18.826C70.305 18.826 69.9456 18.924 69.6376 19.12C69.339 19.316 69.1103 19.568 68.9516 19.876C68.8023 20.184 68.7276 20.5107 68.7276 20.856V25H67.5796Z" fill="#808FB0"/>
</svg>
