<svg width="32" height="32" viewBox="0 0 32 32" fill="none" xmlns="http://www.w3.org/2000/svg">
<path d="M16.4407 4.172C9.82461 4.172 4.44141 9.5552 4.44141 16.1727C4.44141 22.7888 9.82461 28.172 16.4407 28.172C23.0587 28.172 28.4414 22.7888 28.4414 16.1727C28.4414 9.55471 23.0582 4.172 16.4407 4.172ZM24.3619 22.1406C23.3224 21.0863 20.823 19.9409 16.4426 19.9409C12.0622 19.9409 9.56131 21.0863 8.5199 22.1406C7.26338 20.4767 6.50802 18.4139 6.50802 16.1727C6.50802 10.696 10.9643 6.24004 16.4412 6.24004C21.9181 6.24004 26.3744 10.6964 26.3744 16.1732C26.3744 18.4141 25.6208 20.4761 24.3625 22.1406H24.3619Z" fill="white"/>
<path d="M21.1957 13.6494C21.1957 16.2755 19.0667 18.4044 16.4406 18.4044C13.8145 18.4044 11.6855 16.2755 11.6855 13.6494C11.6855 11.0233 13.8145 8.89429 16.4406 8.89429C19.0667 8.89429 21.1957 11.0233 21.1957 13.6494Z" fill="white"/>
</svg>
