<svg width="22" height="22" viewBox="0 0 22 22" fill="none" xmlns="http://www.w3.org/2000/svg">
<path fill-rule="evenodd" clip-rule="evenodd" d="M0 0V22H22V0H0ZM11.856 2.3913C13.2961 2.3913 14.4742 3.56947 14.4742 5.00955C14.4742 5.55761 14.3025 6.06664 14.0117 6.48833L15.6175 8.09414C15.9442 8.42081 16.0789 8.86171 16.0789 9.28892C16.0789 9.71615 15.9442 10.156 15.6175 10.4827L13.9062 12.194C13.805 12.2952 13.725 12.4967 13.725 12.7115C13.725 12.9261 13.805 13.1287 13.9062 13.2299L15.5121 14.8357C15.9335 14.5451 16.4425 14.3733 16.9908 14.3733C18.431 14.3733 19.6091 15.5505 19.6091 16.9907C19.6089 18.4306 18.4307 19.6087 16.9906 19.6087C15.5505 19.6087 14.3732 18.4306 14.3732 16.9905C14.3732 16.4424 14.5449 15.9334 14.8357 15.5117L13.2298 13.9059C13.1286 13.8047 12.926 13.7246 12.7114 13.7246C12.4969 13.7246 12.2953 13.8047 12.1939 13.9059L10.4826 15.6173C10.1559 15.944 9.71612 16.0787 9.28885 16.0787C8.86159 16.0787 8.42072 15.944 8.09408 15.6173L6.48827 14.0115C6.06637 14.3025 5.55694 14.474 5.00867 14.474C3.56853 14.474 2.39124 13.2958 2.39124 11.8557C2.39124 10.4157 3.56853 9.23832 5.00867 9.23832C6.4488 9.23832 7.62691 10.4156 7.62691 11.8557C7.62691 12.404 7.45568 12.9135 7.16445 13.3353L8.77026 14.9412C8.87147 15.0424 9.07409 15.1224 9.28866 15.1224C9.50324 15.1224 9.70501 15.0424 9.80621 14.9412L11.5175 13.2299C11.8442 12.9032 12.284 12.7685 12.7113 12.7685C12.7317 12.7685 12.7525 12.7723 12.773 12.7732C12.773 12.7527 12.7683 12.732 12.7683 12.7115C12.7683 12.2842 12.903 11.8444 13.2296 11.5177L14.941 9.80642C15.0422 9.70521 15.1222 9.50366 15.1222 9.28887C15.1222 9.07429 15.0422 8.87167 14.941 8.77046L13.3351 7.16466C12.9132 7.45567 12.4038 7.62712 11.8555 7.62712C10.4154 7.62712 9.23811 6.44983 9.23811 5.00969C9.23811 3.56955 10.4154 2.39144 11.8555 2.39144L11.856 2.3913ZM11.856 3.34783C10.9327 3.34783 10.195 4.08637 10.195 5.00955C10.195 5.93273 10.9327 6.67045 11.856 6.67045C12.7792 6.67045 13.5177 5.93279 13.5177 5.00955C13.5177 4.08632 12.7789 3.34783 11.856 3.34783ZM5.00889 10.1949C4.08566 10.1949 3.34799 10.9326 3.34799 11.8558C3.34799 12.779 4.08566 13.5175 5.00889 13.5175C5.93213 13.5175 6.67062 12.779 6.67062 11.8558C6.67062 10.9326 5.93207 10.1949 5.00889 10.1949ZM16.9906 15.3295C16.0673 15.3295 15.3297 16.0672 15.3297 16.9904C15.3297 17.9137 16.0673 18.6522 16.9906 18.6522C17.9138 18.6522 18.6523 17.9136 18.6523 16.9904C18.6523 16.0673 17.9137 15.3295 16.9906 15.3295Z" fill="#808FB0"/>
</svg>
