<svg width="18" height="18" viewBox="0 0 18 18" fill="none" xmlns="http://www.w3.org/2000/svg">
<path d="M15.2468 2.75316C13.5804 1.14358 11.3482 0.252945 9.03179 0.273054C6.71497 0.293171 4.49889 1.22242 2.86069 2.8607C1.22249 4.49899 0.293147 6.71537 0.273039 9.03181C0.252921 11.3486 1.14357 13.5806 2.75314 15.2468C4.41952 16.8564 6.65173 17.747 8.96817 17.7269C11.285 17.7068 13.5011 16.7776 15.1393 15.1393C16.7775 13.501 17.7068 11.2846 17.7269 8.96819C17.747 6.65137 16.8564 4.41939 15.2468 2.75316ZM12.7639 11.5096V11.5094C12.9312 11.6754 13.0253 11.9013 13.0253 12.1367C13.0253 12.3724 12.9312 12.5983 12.7639 12.7641C12.5972 12.9296 12.3715 13.0218 12.1366 13.0204C11.9018 13.0218 11.6761 12.9296 11.5092 12.7641L8.99983 10.2458L6.49041 12.7641C6.32356 12.9296 6.09783 13.0218 5.86308 13.0204C5.62817 13.0218 5.40244 12.9296 5.23574 12.7641C5.06844 12.5983 4.97436 12.3724 4.97436 12.1367C4.97436 11.9012 5.06844 11.6754 5.23574 11.5094L7.75402 9L5.23574 6.49059C5.01149 6.26648 4.92406 5.93971 5.00602 5.6335C5.08812 5.32744 5.32731 5.08827 5.63335 5.00617C5.93955 4.92421 6.26633 5.01164 6.49044 5.23589L8.99985 7.75417L11.5093 5.23589C11.7334 5.01164 12.0601 4.92421 12.3663 5.00617C12.6724 5.08827 12.9116 5.32746 12.9937 5.6335C13.0756 5.9397 12.9882 6.26648 12.764 6.49059L10.2457 9L12.7639 11.5096Z" fill="#808FB0"/>
</svg>
